<?xml version="1.0" encoding="utf-8"?>
<!-- Generator: Adobe Illustrator 22.1.0, SVG Export Plug-In . SVG Version: 6.00 Build 0)  -->
<svg version="1.1" id="Layer_1" xmlns="http://www.w3.org/2000/svg" xmlns:xlink="http://www.w3.org/1999/xlink" x="0px" y="0px"
	 viewBox="0 0 512 512" style="enable-background:new 0 0 512 512;" xml:space="preserve">
<g>
	<path d="M368.3,340.1c2.2-2.2,92.5-81.2,92.5-81.2l-15.4-6.6c-8.8-4.3-6.5-10.1-4.4-15.3c2.1-6.7,17.7-59.2,17.7-59.2
		s-41.9,8.8-50.7,11c-6.6,2.1-8.8-2.2-11-6.6s-13.2-28.5-13.2-28.5s-46.2,52.6-48.4,54.8c-8.8,6.6-17.7,0-15.5-8.8
		c0-8.8,24.3-113.9,24.3-113.9s-26.5,15.3-35.2,19.7c-6.6,4.4-11.1,4.4-15.5-4.4C289,94.5,255.9,31,255.9,31s-33,63.5-37.4,70.1
		c-4.4,8.8-8.8,8.8-15.5,4.4c-8.8-4.4-35.2-19.7-35.2-19.7s24.3,105.1,24.3,113.9c2.2,8.8-6.6,15.4-15.5,8.8
		c-2.2-2.2-48.4-54.8-48.4-54.8s-11,24-13.2,28.4s-4.4,8.7-11,6.6c-8.9-2.2-50.7-11-50.7-11s15.5,52.5,17.7,59.2
		c2.1,5.3,4.4,11-4.4,15.3l-15.4,6.7c0,0,90.2,79,92.5,81.2c4.5,4.4,8.8,6.6,4.5,19.8c-4.5,13.2-8.9,30.8-8.9,30.8
		s83.7-17.7,92.5-19.9c7.6-0.8,16.1,2.2,16.1,11s-5.1,99.1-5.1,99.1h26.4c0,0-5.1-90.3-5.1-99.1c0-8.9,8.3-11.8,16.2-11
		c8.8,2.2,92.5,19.9,92.5,19.9s-4.4-17.7-8.8-30.8S363.9,344.5,368.3,340.1z"/>
</g>
</svg>
