<svg xmlns="http://www.w3.org/2000/svg" viewBox="0 0 512 512"><path d="M232.107 65.06v32.634l-20.908-20.895-20.908-20.895-11.301 11.301-11.302 11.301 32.219 32.228 32.219 32.227-.223 35.605-.223 35.605-29.867-17.193c-16.426-9.455-30.004-17.302-30.172-17.436-.169-.133-5.601-19.945-12.073-44.026-8.347-31.06-12.102-43.756-12.92-43.691-2.07.165-28.444 7.357-29.081 7.93-.342.306 2.636 12.643 6.617 27.414 3.981 14.772 7.14 27.33 7.02 27.907-.127.613-11.903-5.72-28.276-15.205-17.826-10.327-28.356-15.958-28.873-15.44-.449.448-5.912 9.594-12.141 20.325-8.366 14.414-11.078 19.766-10.38 20.49.521.538 13.139 7.993 28.043 16.565 14.903 8.573 26.996 15.687 26.873 15.81-.122.122-12.7 3.562-27.95 7.643-15.249 4.082-27.879 7.559-28.065 7.728-.277.251 2.401 10.876 6.916 27.435.426 1.563 1.315 2.773 2.038 2.773.705 0 20.512-5.168 44.015-11.484l42.733-11.485 30.398 17.511c16.719 9.632 30.708 17.816 31.086 18.189.379.372-13.281 8.763-30.355 18.646l-31.043 17.968-42.526-11.431c-23.389-6.287-43.169-11.635-43.955-11.885-1.209-.383-2.069 1.928-5.553 14.921-2.267 8.456-3.963 15.501-3.769 15.656.194.155 12.257 3.434 26.807 7.286 14.549 3.853 27.153 7.286 28.009 7.629 1.177.472-4.741 4.242-24.32 15.494-14.232 8.179-26.923 15.495-28.202 16.258l-2.326 1.388 11.559 19.989c6.357 10.995 11.843 20.282 12.191 20.639.348.357 13.279-6.656 28.737-15.584 15.457-8.928 28.219-15.889 28.359-15.469.14.42-3.022 12.973-7.028 27.895-4.005 14.922-7.106 27.307-6.892 27.521.215.215 7.027 2.199 15.138 4.409 12.983 3.538 14.826 3.856 15.4 2.659.359-.748 5.769-20.466 12.023-43.819 6.254-23.352 11.529-42.598 11.722-42.769.646-.574 59.816-34.665 60.165-34.665.19 0 .345 15.838.345 35.196v35.195l-32.21 32.218-32.209 32.218 11.302 11.301 11.301 11.301 20.908-20.895 20.908-20.895V480.427H279.874l.223-33.237.223-33.237 20.98 20.376 20.98 20.376 11.011-11.037 11.012-11.036-32.205-32.214-32.205-32.213v-35.196c0-19.358.166-35.196.368-35.196.202 0 14.122 7.94 30.933 17.644l30.751 17.749c.102.058 5.387 19.479 11.745 43.157 6.358 23.678 11.715 43.479 11.904 44.003.229.632 5.415-.422 15.425-3.135 8.295-2.247 15.202-4.212 15.349-4.365.148-.154-3.103-12.759-7.223-28.013-4.12-15.253-7.368-27.872-7.219-28.041.15-.169 12.462 6.743 27.362 15.36 14.899 8.617 27.512 15.777 28.028 15.909.782.201 22.359-35.91 23.854-39.921.356-.955-6.666-5.39-27.68-17.482-15.486-8.912-28.157-16.422-28.157-16.691 0-.269 12-3.685 26.667-7.593 14.667-3.908 27.267-7.341 28.001-7.629 1.155-.455.809-2.493-2.577-15.191-2.152-8.067-4.157-14.911-4.455-15.21-.299-.299-20.007 4.669-43.796 11.04-23.789 6.37-43.537 11.583-43.886 11.583-.349 0-13.465-7.416-29.147-16.479-15.682-9.064-29.18-16.852-29.995-17.308-1.198-.67 4.244-4.14 28.355-18.081 16.411-9.489 30.381-17.252 31.045-17.252.663 0 20.518 5.177 44.122 11.504s43.094 11.326 43.311 11.109c.217-.218 2.197-7.113 4.399-15.323l4.004-14.929-4.344-1.239c-2.389-.681-14.712-3.996-27.384-7.365s-23.343-6.408-23.714-6.752c-.371-.344 11.998-7.887 27.486-16.762 15.489-8.875 28.176-16.394 28.195-16.708.062-1.051-23.223-40.815-23.9-40.815-.367 0-13.018 7.138-28.113 15.862-15.096 8.724-27.563 15.732-27.705 15.573-.142-.159 2.946-12.193 6.863-26.742 3.917-14.549 7.231-27.199 7.365-28.111.215-1.464-1.5-2.125-14.69-5.664-8.213-2.203-15.185-3.761-15.493-3.462-.308.299-5.63 19.552-11.827 42.784-6.196 23.232-11.704 42.93-12.24 43.774-.535.843-14.605 9.388-31.267 18.988l-30.293 17.455-.223-35.342-.222-35.342 32.466-32.245 32.465-32.246-11.327-11.35-11.327-11.351-20.496 20.483c-11.272 11.265-20.781 20.482-21.129 20.482-.349 0-.634-14.784-.634-32.853V32.427h-47.786V65.06" fill-rule="evenodd"/></svg>