<?xml version="1.0" encoding="UTF-8" standalone="no"?> <svg xmlns="http://www.w3.org/2000/svg" viewBox="0 0 64 64"><title>1</title><g id="Layer_17" data-name="Layer 17"><path d="M53.42,39.26C58,39.26,61.71,36,61.71,32S58,24.74,53.42,24.74c-2.69,0-6.87,2.22-9.67,3.91A12.31,12.31,0,0,0,42.65,26c3.15-.8,7.69-2.22,9.6-4.15h0c3.22-3.25,3.57-8.2.77-11a6.66,6.66,0,0,0-4.79-1.93h0A8.84,8.84,0,0,0,42,11.57c-1.9,1.92-3.3,6.48-4.09,9.67a12.09,12.09,0,0,0-2.63-1.1c1.67-2.82,3.89-7.07,3.89-9.78C39.21,5.75,36,2,32,2s-7.21,3.75-7.21,8.36c0,2.72,2.22,7,3.89,9.78A12.09,12.09,0,0,0,26,21.24c-.79-3.18-2.2-7.75-4.09-9.67a8.84,8.84,0,0,0-6.19-2.71A6.66,6.66,0,0,0,11,10.79c-2.8,2.83-2.45,7.77.77,11,1.9,1.92,6.44,3.35,9.6,4.15a12.31,12.31,0,0,0-1.1,2.68c-2.79-1.69-7-3.91-9.67-3.91C6,24.74,2.29,28,2.29,32S6,39.26,10.58,39.26c2.69,0,6.87-2.22,9.67-3.91A12.31,12.31,0,0,0,21.35,38c-3.15.8-7.69,2.22-9.6,4.15h0c-3.22,3.25-3.57,8.2-.77,11a6.66,6.66,0,0,0,4.79,1.93h0A8.84,8.84,0,0,0,22,52.43c1.9-1.92,3.3-6.48,4.09-9.67a12.09,12.09,0,0,0,2.63,1.1c-1.67,2.82-3.89,7.07-3.89,9.78C24.79,58.25,28,62,32,62s7.21-3.75,7.21-8.36c0-2.72-2.22-7-3.89-9.78A12.09,12.09,0,0,0,38,42.76c.79,3.18,2.2,7.75,4.09,9.67a8.84,8.84,0,0,0,6.19,2.71A6.66,6.66,0,0,0,53,53.21c2.8-2.83,2.45-7.77-.77-11-1.9-1.92-6.44-3.35-9.6-4.15a12.31,12.31,0,0,0,1.1-2.68C46.55,37,50.74,39.26,53.42,39.26Zm0-10.52c2.33,0,4.29,1.49,4.29,3.26s-2,3.26-4.29,3.26C52,35.26,48.74,33.66,46,32,48.74,30.34,52,28.74,53.42,28.74ZM32,40.33A8.33,8.33,0,1,1,40.23,32,8.29,8.29,0,0,1,32,40.33ZM44.89,14.38a4.83,4.83,0,0,1,3.34-1.52,2.69,2.69,0,0,1,1.94.75c1.24,1.25.89,3.73-.77,5.4-1,1-4.41,2.21-7.53,3C42.69,18.87,43.84,15.44,44.89,14.38ZM32,6c1.74,0,3.21,2,3.21,4.36,0,1.48-1.57,4.72-3.21,7.52-1.64-2.81-3.21-6-3.21-7.52C28.79,8,30.26,6,32,6ZM13.82,13.61a2.69,2.69,0,0,1,1.94-.75,4.83,4.83,0,0,1,3.34,1.52c1,1.05,2.2,4.48,3,7.65-3.12-.81-6.49-2-7.52-3C12.94,17.33,12.58,14.86,13.82,13.61ZM10.58,35.26c-2.33,0-4.29-1.49-4.29-3.26s2-3.26,4.29-3.26c1.47,0,4.68,1.6,7.47,3.26C15.26,33.66,12,35.26,10.58,35.26Zm8.53,14.36a4.83,4.83,0,0,1-3.34,1.52,2.69,2.69,0,0,1-1.94-.75c-1.24-1.25-.89-3.73.77-5.4,1-1,4.41-2.21,7.53-3C21.31,45.13,20.16,48.56,19.11,49.62ZM32,58c-1.74,0-3.21-2-3.21-4.36,0-1.48,1.57-4.72,3.21-7.52,1.64,2.81,3.21,6,3.21,7.52C35.21,56,33.74,58,32,58Zm18.18-7.61a2.69,2.69,0,0,1-1.94.75,4.83,4.83,0,0,1-3.34-1.52c-1-1.05-2.2-4.48-3-7.65,3.12.81,6.49,2,7.52,3C51.06,46.67,51.42,49.14,50.18,50.39Z"/></g></svg>