<svg fill="#4D1299" xmlns="http://www.w3.org/2000/svg" viewBox="0 0 750 750" style="enable-background:new 0 0 750 750" xml:space="preserve"><switch><g><path d="M429.8 339.1c11.3-32.1 11.2-64.7 3-97.5-.8-3.3-1.9-6.2 1.4-9.4 29.5-28.7 60.9-54.5 99.6-69.9 15.3-6.1 31.1-10.3 47.8-9.8 5.3.4 10.8.2 16 1.3 27.4 5.6 41.5 24.4 40.9 54.3-.2 11.6-1.1 23.3-5 34.2-6.8 18.9-5.6 37.3 0 56.1 5 17 6.1 34.3 2.4 51.8-6.7 31.3-31.3 51.8-63.7 52.4-36 .6-68.6-11.3-99.5-28.6-14.1-7.9-27.5-16.8-40.2-26.7-2.8-2.5-4.2-4.1-2.7-8.2zm256.2 133c-23.5-18.8-47-37.5-70.7-56.2-4-3.1-7.9-6-13.9-4.8-60.1 11.9-116-10.8-163.3-46.8-4.5-3.4-9-6.8-14.5-8.7-6.4-2.1-29.1 0-28.1 10.1.2 2.2 1.5 4.1 2.7 6 30.3 46.3 61.6 91.9 98.8 133.1 27 29.8 56.1 57.7 87.4 83.1 2.5 2.1 4.7 5 9 5.2v-6c.5-32-1-64-5.4-95.7-.9-6.6.7-7.9 7-6.6 7.9 1.5 15.9 2.3 24 2.9 25.6 2.1 50.8.1 76.5-6.8-2.6-4.7-6.4-6.4-9.5-8.8zm-262.5-147c6.5-26.9 6.3-53.7-1-80.4-1.4-5-3.6-9.8-8.3-12.5-23.7-13.5-47.8-15-72.1-1.9-6.3 3.4-10 8.9-11 16-2.5 16.7-4.2 33.5-4.3 51 .3 5.4.5 11.3 1.1 17.1 1.4 16.2 10 26.6 25.5 31.7 15.5 5 31 4.7 46.9 1.5 13-2.6 20.2-10.2 23.2-22.5zm-297.7-48.2c-1.9 14.9-7.6 29-9.1 44.1-3 32.3 10.3 65.1 41.9 76.7 28 10.3 58.4 3.1 85.4-6.5 28.6-10.2 54.5-26.5 78.7-44.7 3.3-2.5 3.2-4.9 1.9-8.3-11.7-31.9-10.7-64.3-2.7-96.7 1.3-5.1.3-7.9-3.2-11.2-19.7-18.7-40.2-36.5-63.5-50.8-37.4-22.9-125.9-53.1-137.9 14.1-3.2 18.2-.3 35.9 5.1 53.2 3.2 10 4.7 19.8 3.4 30.1zm226.8 81.6c-12.7-7.2-19.7-6.8-33 3.5-22 17.1-46.2 31.5-72.6 40.8-25.1 8.9-56.8 16.1-83.3 10-9.9-2.3-17.5-.1-25.2 6.1-23.2 18.8-46.6 37.2-70 55.8-4.3 3.4-8.7 6.8-14 11 25.6 7 51.2 9.5 77.4 6 10.1-1.3 20-3.1 29.8-4.8 2.3-.4 4.8 0 6.5 1.5 3.9 3.5-.3 17.3-.7 21.9-1 9.6-1.9 19.3-2.9 28.9-1.9 19.4-3.9 38.8-5.8 58.3 3.5-.5 5-3 6.9-4.7C226.8 536.5 282 473.6 330 405.7c8.6-12.1 16.9-24.4 25.1-36.8 3.5-5.2 2.5-7.5-2.5-10.4z"/></g></switch></svg>