<?xml version="1.0" encoding="utf-8"?>
<!-- Generator: Adobe Illustrator 23.0.3, SVG Export Plug-In . SVG Version: 6.00 Build 0)  -->
<svg version="1.1" id="Icons" xmlns="http://www.w3.org/2000/svg" xmlns:xlink="http://www.w3.org/1999/xlink" x="0px" y="0px"
	 viewBox="0 0 32 32" style="enable-background:new 0 0 32 32;" xml:space="preserve">
<style type="text/css">
	.st0{fill:none;stroke:#000000;stroke-width:2;stroke-linecap:round;stroke-linejoin:round;stroke-miterlimit:10;}
</style>
<path class="st0" d="M14.7,20L14.7,20c-0.2-0.7-0.9-1.1-1.6-0.9l0,0c-1.3,0.3-2.2-1.2-1.3-2.2l0,0c0.5-0.5,0.5-1.3,0-1.8l0,0
	c-0.9-1,0-2.5,1.3-2.2l0,0c0.7,0.2,1.4-0.2,1.6-0.9l0,0c0.4-1.3,2.2-1.3,2.5,0l0,0c0.2,0.7,0.9,1.1,1.6,0.9l0,0
	c1.3-0.3,2.2,1.2,1.3,2.2l0,0c-0.5,0.5-0.5,1.3,0,1.8l0,0c0.9,1,0,2.5-1.3,2.2l0,0c-0.7-0.2-1.4,0.2-1.6,0.9l0,0
	C16.9,21.3,15.1,21.3,14.7,20z"/>
<line class="st0" x1="16" y1="29" x2="16" y2="21"/>
<polyline class="st0" points="19,28 16,26 13,28 "/>
<line class="st0" x1="27.3" y1="22.5" x2="20.3" y2="18.5"/>
<polyline class="st0" points="27.9,19.4 24.7,21 24.9,24.6 "/>
<line class="st0" x1="27.3" y1="9.5" x2="20.3" y2="13.5"/>
<polyline class="st0" points="24.9,7.4 24.7,11 27.9,12.6 "/>
<line class="st0" x1="16" y1="3" x2="16" y2="11"/>
<polyline class="st0" points="13,4 16,6 19,4 "/>
<line class="st0" x1="4.7" y1="9.5" x2="11.7" y2="13.5"/>
<polyline class="st0" points="4.1,12.6 7.3,11 7.1,7.4 "/>
<line class="st0" x1="4.7" y1="22.5" x2="11.7" y2="18.5"/>
<polyline class="st0" points="7.1,24.6 7.3,21 4.1,19.4 "/>
<line class="st0" x1="7" y1="16" x2="8" y2="16"/>
<line class="st0" x1="11.5" y1="23.8" x2="12" y2="22.9"/>
<line class="st0" x1="20.5" y1="23.8" x2="20" y2="22.9"/>
<line class="st0" x1="25" y1="16" x2="24" y2="16"/>
<line class="st0" x1="20.5" y1="8.2" x2="20" y2="9.1"/>
<line class="st0" x1="11.5" y1="8.2" x2="12" y2="9.1"/>
</svg>
