<!-- Generated by IcoMoon.io -->
<svg version="1.1" xmlns="http://www.w3.org/2000/svg" width="32" height="32" viewBox="0 0 32 32">
<title>368088</title>
<path d="M14.667 4.027v2h2.667v-4h-2.667v2zM5.653 5.68l-0.932 0.933 2.398 2.4 1.894-1.892-1.186-1.187c-0.652-0.653-1.199-1.187-1.214-1.187s-0.447 0.42-0.96 0.933zM24.173 5.934l-1.186 1.187 1.894 1.892 2.398-2.4-0.932-0.933c-0.513-0.513-0.945-0.933-0.96-0.933s-0.561 0.534-1.214 1.187zM15.042 8.064c-1.777 0.197-3.503 1.069-4.809 2.43-1.036 1.079-1.701 2.319-2.052 3.825-0.137 0.587-0.149 0.726-0.148 1.68 0.001 0.864 0.021 1.128 0.116 1.561 0.36 1.632 1.054 2.904 2.22 4.069 1.151 1.15 2.354 1.817 3.95 2.189 0.585 0.136 0.729 0.149 1.68 0.149s1.095-0.013 1.68-0.149c1.596-0.372 2.8-1.039 3.95-2.189 1.176-1.176 1.862-2.438 2.217-4.083 0.175-0.809 0.175-2.285 0-3.093-0.335-1.552-1.018-2.852-2.078-3.957-1.777-1.851-4.169-2.716-6.727-2.432zM1.973 16v1.333h4.053v-2.667h-4.053v1.333zM25.973 16v1.333h4.053v-2.667h-4.053v1.333zM5.893 24.213l-1.173 1.174 1.892 1.892 2.4-2.398-0.919-0.921c-0.506-0.506-0.944-0.921-0.974-0.921s-0.582 0.528-1.227 1.173zM23.906 23.96l-0.919 0.921 2.4 2.398 1.892-1.892-1.173-1.174c-0.645-0.645-1.197-1.173-1.227-1.173s-0.468 0.414-0.974 0.921zM14.667 28.027v2h2.667v-4h-2.667v2z"></path>
</svg>
