<!-- Generated by IcoMoon.io -->
<svg version="1.1" xmlns="http://www.w3.org/2000/svg" width="32" height="32" viewBox="0 0 32 32">
<title>autumn</title>
<path d="M15.2 3.448c-1.161 2.213-1.642 3.072-1.798 3.211-0.106 0.094-0.182 0.119-0.309 0.098-0.152-0.025-1.211-0.581-2.185-1.148-0.205-0.119-0.38-0.209-0.389-0.199s0.129 0.662 0.309 1.45c0.819 3.601 1.173 5.339 1.171 5.753-0.002 0.456-0.298 0.675-0.718 0.53-0.247-0.085-0.122 0.045-1.855-1.926l-1.415-1.61-0.445 0.964c-0.245 0.53-0.511 1.035-0.592 1.122-0.174 0.186 0.036 0.211-1.998-0.231-0.857-0.186-1.573-0.324-1.59-0.306-0.030 0.030 0.798 2.883 1.040 3.584 0.152 0.44 0.144 0.698-0.027 0.856-0.075 0.069-0.376 0.228-0.669 0.354-0.42 0.179-0.518 0.241-0.464 0.291 0.038 0.035 1.257 1.102 2.709 2.371 2.986 2.61 3.283 2.887 3.364 3.132 0.068 0.206 0.047 0.324-0.193 1.108-0.099 0.323-0.239 0.809-0.311 1.080l-0.131 0.493 0.116-0.027c1.341-0.313 5.673-1.2 5.862-1.2 0.353 0 0.601 0.114 0.712 0.328 0.108 0.209 0.091 0.926-0.102 4.409-0.064 1.154-0.106 2.108-0.094 2.12s0.375 0.023 0.805 0.023c0.43 0 0.792-0.010 0.805-0.023s-0.030-0.966-0.094-2.12c-0.064-1.154-0.134-2.591-0.155-3.194-0.035-1.004-0.030-1.109 0.057-1.243 0.135-0.206 0.349-0.301 0.681-0.301 0.164 0 1.508 0.261 3.135 0.61 1.567 0.335 2.854 0.604 2.861 0.597 0.018-0.018-0.281-1.088-0.467-1.674-0.095-0.298-0.157-0.61-0.157-0.787 0-0.263 0.020-0.315 0.2-0.514 0.11-0.122 1.46-1.326 3-2.675s2.83-2.48 2.866-2.513c0.050-0.045-0.066-0.116-0.48-0.296-0.699-0.303-0.804-0.403-0.772-0.738 0.013-0.138 0.281-1.099 0.595-2.136s0.558-1.899 0.541-1.915c-0.017-0.017-0.732 0.122-1.59 0.307s-1.621 0.347-1.694 0.359c-0.25 0.041-0.387-0.148-0.877-1.206l-0.468-1.011-0.433 0.49c0.898-1.043 0.402-0.482-0.095 0.080l-1.427 1.646c-0.598 0.679-1.15 1.26-1.227 1.289-0.299 0.117-0.492 0.091-0.671-0.088-0.142-0.142-0.146-0.162-0.119-0.573 0.031-0.473 0.287-1.723 1.003-4.9 0.264-1.17 0.472-2.135 0.463-2.144s-0.184 0.081-0.389 0.2c-0.974 0.566-2.034 1.123-2.185 1.148-0.127 0.021-0.203-0.004-0.308-0.098-0.174-0.157-0.626-0.958-1.719-3.049-0.469-0.898-0.865-1.633-0.88-1.634s-0.375 0.662-0.8 1.472z"></path>
</svg>
