<!-- Generated by IcoMoon.io -->
<svg version="1.1" xmlns="http://www.w3.org/2000/svg" width="32" height="32" viewBox="0 0 32 32">
<title>flower</title>
<path d="M15.387 3.047c-2.223 0.278-4.012 2.215-4.045 4.379-0.004 0.286-0.016 0.52-0.026 0.52s-0.166-0.081-0.347-0.181c-0.776-0.428-1.539-0.594-2.555-0.554-0.57 0.022-0.724 0.050-1.201 0.214-1.862 0.639-3.083 2.215-3.195 4.122-0.101 1.722 0.77 3.352 2.261 4.231 0.183 0.108 0.333 0.21 0.333 0.227s-0.118 0.096-0.264 0.176c-1.041 0.567-1.845 1.607-2.2 2.844-0.171 0.597-0.171 1.727 0 2.324 0.649 2.265 2.71 3.677 5.025 3.443 0.582-0.059 1.31-0.284 1.795-0.555 0.181-0.101 0.337-0.183 0.347-0.184s0.010 0.141 0 0.314c-0.040 0.716 0.275 1.771 0.747 2.498 0.648 0.998 1.689 1.724 2.905 2.025 0.496 0.123 1.568 0.123 2.064 0 1.216-0.301 2.257-1.027 2.905-2.025 0.472-0.727 0.788-1.782 0.747-2.498-0.010-0.173-0.014-0.314-0.009-0.314s0.185 0.094 0.4 0.209c1.101 0.588 2.449 0.717 3.623 0.347 0.811-0.256 1.402-0.619 1.994-1.226 1.711-1.753 1.731-4.6 0.046-6.345-0.332-0.344-0.751-0.674-1.088-0.858-0.283-0.154-0.317-0.203-0.176-0.256 0.224-0.086 0.857-0.556 1.168-0.867 0.594-0.594 0.965-1.233 1.208-2.082 0.171-0.597 0.171-1.727 0-2.324-0.501-1.748-1.844-3.006-3.611-3.382-0.271-0.058-0.572-0.072-1.094-0.053-0.848 0.031-1.287 0.14-1.99 0.494-0.259 0.13-0.475 0.236-0.48 0.236s-0.013-0.234-0.018-0.52c-0.034-2.202-1.826-4.108-4.124-4.385-0.507-0.061-0.618-0.061-1.148 0.006zM17.197 11.517c2.224 0.581 3.725 2.758 3.449 5.003-0.232 1.884-1.498 3.374-3.351 3.943-0.424 0.13-0.549 0.144-1.296 0.144s-0.872-0.014-1.296-0.144c-0.892-0.274-1.549-0.682-2.158-1.344-2.228-2.418-1.283-6.298 1.818-7.465 0.83-0.312 1.954-0.367 2.833-0.138z"></path>
</svg>
