<!-- Generated by IcoMoon.io -->
<svg version="1.1" xmlns="http://www.w3.org/2000/svg" width="32" height="32" viewBox="0 0 32 32">
<title>snow</title>
<path d="M14.507 4.066v2.040l-2.614-2.612-1.413 1.413 4.027 4.028-0.028 4.451-1.867-1.075c-1.027-0.591-1.875-1.081-1.886-1.090s-0.35-1.247-0.755-2.752c-0.522-1.941-0.756-2.735-0.807-2.731-0.129 0.010-1.778 0.46-1.818 0.496-0.021 0.019 0.165 0.79 0.414 1.713s0.446 1.708 0.439 1.744c-0.008 0.038-0.744-0.357-1.767-0.95-1.114-0.645-1.772-0.997-1.805-0.965-0.028 0.028-0.37 0.6-0.759 1.27-0.523 0.901-0.692 1.235-0.649 1.281 0.033 0.034 0.821 0.5 1.753 1.035s1.687 0.98 1.68 0.988c-0.008 0.008-0.794 0.223-1.747 0.478s-1.742 0.472-1.754 0.483c-0.017 0.016 0.15 0.68 0.432 1.715 0.027 0.098 0.082 0.173 0.127 0.173 0.044 0 1.282-0.323 2.751-0.718l2.671-0.718 1.9 1.094c1.045 0.602 1.919 1.114 1.943 1.137s-0.83 0.548-1.897 1.165l-1.94 1.123-2.658-0.714c-1.462-0.393-2.698-0.727-2.747-0.743-0.076-0.024-0.129 0.12-0.347 0.933-0.142 0.529-0.248 0.969-0.236 0.979s0.766 0.215 1.675 0.455c0.909 0.241 1.697 0.455 1.751 0.477 0.074 0.029-0.296 0.265-1.52 0.968-0.889 0.511-1.683 0.968-1.763 1.016l-0.145 0.087 0.722 1.249c0.397 0.687 0.74 1.268 0.762 1.29s0.83-0.416 1.796-0.974c0.966-0.558 1.764-0.993 1.772-0.967s-0.189 0.811-0.439 1.743c-0.25 0.933-0.444 1.707-0.431 1.72s0.439 0.137 0.946 0.276c0.811 0.221 0.927 0.241 0.963 0.166 0.022-0.047 0.361-1.279 0.751-2.739s0.721-2.662 0.733-2.673c0.040-0.036 3.739-2.167 3.76-2.167 0.012 0 0.022 0.99 0.022 2.2v2.2l-4.026 4.027 1.413 1.413 2.614-2.612v4.133h2.985l0.028-4.155 2.622 2.547 1.376-1.38-4.026-4.027v-2.2c0-1.21 0.010-2.2 0.023-2.2s0.883 0.496 1.933 1.103l1.922 1.109c0.006 0.004 0.337 1.217 0.734 2.697s0.732 2.717 0.744 2.75c0.014 0.040 0.338-0.026 0.964-0.196 0.518-0.14 0.95-0.263 0.959-0.273s-0.194-0.797-0.451-1.751c-0.258-0.953-0.46-1.742-0.451-1.753s0.779 0.421 1.71 0.96c0.931 0.539 1.72 0.986 1.752 0.994 0.049 0.013 1.397-2.244 1.491-2.495 0.022-0.060-0.417-0.337-1.73-1.093-0.968-0.557-1.76-1.026-1.76-1.043s0.75-0.23 1.667-0.475c0.917-0.244 1.704-0.459 1.75-0.477 0.072-0.028 0.051-0.156-0.161-0.949-0.134-0.504-0.26-0.932-0.278-0.951s-1.25 0.292-2.737 0.69c-1.487 0.398-2.721 0.724-2.743 0.724s-0.842-0.463-1.822-1.030c-0.98-0.567-1.824-1.053-1.875-1.082-0.075-0.042 0.265-0.259 1.772-1.13 1.026-0.593 1.899-1.078 1.94-1.078s1.282 0.324 2.758 0.719 2.693 0.708 2.707 0.694c0.014-0.014 0.137-0.445 0.275-0.958l0.25-0.933-0.271-0.077c-0.149-0.043-0.919-0.25-1.712-0.46s-1.459-0.4-1.482-0.422c-0.023-0.021 0.75-0.493 1.718-1.048s1.761-1.025 1.762-1.044c0.004-0.066-1.451-2.551-1.494-2.551-0.023 0-0.814 0.446-1.757 0.991s-1.723 0.983-1.732 0.973 0.184-0.762 0.429-1.671c0.245-0.909 0.452-1.7 0.46-1.757 0.013-0.091-0.094-0.133-0.918-0.354-0.513-0.138-0.949-0.235-0.968-0.216s-0.352 1.222-0.739 2.674c-0.387 1.452-0.732 2.683-0.765 2.736s-0.913 0.587-1.954 1.187l-1.893 1.091-0.014-2.209-0.014-2.209 4.058-4.031-1.416-1.419-1.281 1.28c-0.704 0.704-1.299 1.28-1.321 1.28s-0.040-0.924-0.040-2.053v-2.053h-2.987v2.040z"></path>
</svg>
