<!-- Generated by IcoMoon.io -->
<svg version="1.1" xmlns="http://www.w3.org/2000/svg" width="32" height="32" viewBox="0 0 32 32">
<title>spring</title>
<path d="M15.242 1.096c-0.652 0.158-1.363 0.621-1.842 1.197-0.838 1.010-1.188 2.537-0.873 3.813 0.21 0.855 0.848 2.3 1.543 3.502l0.267 0.462-0.354 0.118c-0.195 0.066-0.493 0.188-0.662 0.274-0.223 0.112-0.314 0.136-0.33 0.086 0.003 0.047-0.063-0.18-0.127-0.408l-0.065-0.272c-0.402-1.45-0.916-2.756-1.354-3.44-0.733-1.146-1.97-1.865-3.4-1.977-1.252-0.098-2.566 0.638-3.101 1.735-0.274 0.563-0.373 0.995-0.374 1.627-0 1.36 0.729 2.741 1.853 3.507 0.7 0.477 2.015 1.020 3.468 1.431 0.409 0.116 0.752 0.22 0.764 0.231s-0.044 0.149-0.124 0.306-0.198 0.441-0.264 0.632-0.144 0.341-0.174 0.335c-0.030-0.007-0.363-0.184-0.739-0.396-1.322-0.742-2.505-1.243-3.324-1.409-0.566-0.114-1.394-0.079-1.972 0.084-0.801 0.226-1.636 0.762-2.141 1.373-0.837 1.013-0.992 2.439-0.389 3.588 0.638 1.217 1.951 2.019 3.465 2.116 0.59 0.038 1.038-0.034 1.784-0.285 0.641-0.215 1.902-0.811 2.737-1.291 0.313-0.18 0.578-0.328 0.589-0.328s0.074 0.15 0.14 0.334c0.066 0.183 0.191 0.472 0.275 0.641 0.112 0.224 0.136 0.314 0.086 0.331-0.037 0.012-0.408 0.119-0.822 0.238-2.344 0.669-3.659 1.384-4.368 2.378-0.3 0.42-0.623 1.111-0.748 1.599-0.117 0.457-0.132 1.372-0.029 1.787 0.3 1.209 1.192 2.11 2.407 2.427 0.479 0.125 1.523 0.083 2.052-0.083 1.066-0.335 1.959-1.027 2.489-1.933 0.434-0.742 0.991-2.223 1.326-3.532 0.068-0.264 0.127-0.486 0.133-0.494s0.175 0.067 0.378 0.166c0.202 0.099 0.495 0.221 0.649 0.273l0.281 0.092-0.216 0.382c-0.595 1.049-1.188 2.317-1.437 3.075-0.373 1.133-0.358 2.131 0.046 3.18 0.898 2.329 3.417 3.145 5.281 1.71 1.216-0.936 1.838-2.814 1.451-4.383-0.21-0.855-0.848-2.3-1.543-3.502l-0.267-0.462 0.355-0.119c0.195-0.066 0.493-0.189 0.662-0.273 0.224-0.112 0.314-0.136 0.33-0.087 0.012 0.038 0.084 0.296 0.16 0.575 0.387 1.411 0.88 2.697 1.316 3.433 0.267 0.452 0.75 0.972 1.193 1.288 0.759 0.54 1.517 0.788 2.427 0.794 0.994 0.007 1.679-0.264 2.352-0.927 0.663-0.654 0.973-1.426 0.973-2.427 0-1.352-0.736-2.75-1.849-3.505-0.692-0.47-1.968-1-3.39-1.409-0.456-0.131-0.836-0.246-0.846-0.256s0.051-0.16 0.137-0.331c0.086-0.172 0.198-0.444 0.25-0.605s0.105-0.312 0.118-0.334c0.013-0.023 0.22 0.069 0.459 0.202 1.616 0.901 2.922 1.451 3.866 1.631 0.707 0.134 1.802-0.043 2.531-0.409 0.49-0.245 0.695-0.39 1.069-0.755 0.719-0.701 1.061-1.479 1.061-2.415 0-1.335-0.783-2.498-2.118-3.146-0.727-0.352-1.133-0.448-1.92-0.451-0.506-0.002-0.735 0.024-1.091 0.12-0.831 0.226-1.951 0.728-3.192 1.431-0.331 0.188-0.622 0.329-0.646 0.315s-0.059-0.102-0.077-0.193c-0.018-0.091-0.128-0.369-0.244-0.617-0.143-0.306-0.191-0.458-0.147-0.473 0.035-0.011 0.41-0.12 0.832-0.241 1.872-0.534 3.174-1.143 3.863-1.805 0.544-0.524 1.040-1.391 1.239-2.168 0.116-0.455 0.132-1.369 0.030-1.787-0.039-0.161-0.166-0.491-0.28-0.732-0.387-0.814-1.235-1.481-2.16-1.699-0.488-0.114-1.436-0.075-1.984 0.082-1.055 0.303-1.986 1.018-2.525 1.938-0.434 0.742-0.991 2.223-1.326 3.532-0.067 0.264-0.128 0.488-0.135 0.497s-0.153-0.053-0.325-0.14c-0.165-0.084-0.378-0.177-0.596-0.26l-0.050-0.017-0.334-0.121 0.215-0.38c0.593-1.046 1.186-2.315 1.436-3.072 0.373-1.133 0.358-2.13-0.046-3.179-0.369-0.956-0.99-1.657-1.857-2.094-0.625-0.316-1.47-0.411-2.159-0.244zM16.606 3.191c0.622 0.335 1.053 1.271 0.977 2.116-0.033 0.36-0.262 1.048-0.576 1.73-0.24 0.52-0.966 1.87-1.006 1.87-0.049 0-0.809-1.434-1.068-2.014-0.341-0.764-0.477-1.184-0.514-1.578-0.075-0.825 0.332-1.748 0.924-2.095 0.452-0.265 0.809-0.272 1.263-0.028zM8.814 6.679c0.658 0.312 0.959 0.681 1.386 1.694 0.305 0.723 0.873 2.544 0.814 2.604-0.036 0.035-0.947-0.229-1.761-0.51-1.042-0.36-1.643-0.664-1.984-1.004-0.745-0.745-0.939-1.958-0.411-2.575 0.295-0.346 0.553-0.445 1.091-0.423 0.392 0.016 0.514 0.046 0.864 0.213zM24.658 6.533c0.305 0.134 0.543 0.373 0.672 0.671l0.003 0.008c0.103 0.24 0.116 0.342 0.092 0.726-0.023 0.373-0.059 0.511-0.223 0.84-0.366 0.742-0.887 1.114-2.243 1.61-0.716 0.261-1.943 0.621-1.983 0.582-0.037-0.037 0.245-1.028 0.523-1.841 0.251-0.735 0.668-1.61 0.895-1.882 0.22-0.262 0.702-0.575 1.066-0.691 0.369-0.118 0.941-0.128 1.197-0.021zM16.711 11.916c1.106 0.211 2.065 0.843 2.675 1.761 0.458 0.69 0.649 1.251 0.701 2.056 0.161 2.51-1.835 4.535-4.351 4.413-0.928-0.044-1.727-0.358-2.46-0.964-0.618-0.511-1.149-1.354-1.366-2.169-0.142-0.532-0.128-1.556 0.028-2.104 0.457-1.602 1.755-2.752 3.422-3.033 0.306-0.052 0.978-0.032 1.351 0.040zM6.056 14.536c0.704 0.229 2.904 1.339 2.904 1.465 0 0.128-2.167 1.215-2.934 1.472-0.55 0.184-1.029 0.193-1.542 0.029-1.322-0.423-1.742-1.671-0.841-2.501 0.638-0.588 1.518-0.758 2.413-0.466zM27.526 14.508c0.556 0.188 0.959 0.502 1.181 0.925 0.159 0.303 0.16 0.83 0.002 1.127-0.155 0.291-0.519 0.631-0.856 0.799-0.355 0.177-0.988 0.312-1.267 0.27-0.372-0.056-1.045-0.299-1.724-0.621-0.694-0.329-1.822-0.951-1.822-1.005 0-0.051 1.224-0.732 1.831-1.018 1.247-0.588 1.95-0.715 2.654-0.477zM11.040 21.058c0 0.082-0.416 1.467-0.588 1.955-0.216 0.614-0.527 1.284-0.745 1.6-0.367 0.534-1.152 0.939-1.827 0.943-0.572 0.003-0.997-0.266-1.213-0.768-0.103-0.24-0.116-0.342-0.092-0.726 0.023-0.372 0.059-0.511 0.223-0.84 0.29-0.588 0.593-0.866 1.316-1.213 0.662-0.317 1.235-0.529 2.181-0.806 0.671-0.197 0.746-0.212 0.746-0.145zM21.811 21.23c2.235 0.674 2.977 1.111 3.399 2 0.344 0.724 0.307 1.453-0.096 1.911-0.37 0.421-0.941 0.524-1.655 0.302-0.735-0.229-1.163-0.677-1.604-1.683-0.238-0.541-0.895-2.549-0.895-2.732 0-0.041 0.201 0.006 0.851 0.203zM16.42 23.815c0.419 0.769 0.826 1.645 1.026 2.212 0.17 0.48 0.171 1.279 0.002 1.712-0.487 1.25-1.57 1.637-2.364 0.844-0.46-0.46-0.728-1.22-0.667-1.89 0.033-0.36 0.262-1.049 0.576-1.73 0.24-0.52 0.966-1.87 1.006-1.87 0.015 0 0.203 0.325 0.42 0.721z"></path>
</svg>
