<!-- Generated by IcoMoon.io -->
<svg version="1.1" xmlns="http://www.w3.org/2000/svg" width="32" height="32" viewBox="0 0 32 32">
<title>summer</title>
<path d="M15.547 2.102c-0.206 0.092-0.374 0.275-0.478 0.524-0.068 0.164-0.082 0.477-0.082 1.839 0 0.965 0.023 1.723 0.055 1.84 0.12 0.431 0.472 0.682 0.958 0.682s0.838-0.251 0.958-0.682c0.032-0.117 0.054-0.875 0.054-1.852-0.001-1.493-0.011-1.674-0.099-1.866-0.114-0.247-0.29-0.423-0.503-0.503-0.206-0.078-0.669-0.068-0.863 0.018zM6.356 5.928c-0.285 0.15-0.486 0.427-0.528 0.753l-0.001 0.005c-0.051 0.455 0.024 0.562 1.234 1.785 1.084 1.096 1.381 1.343 1.701 1.418 0.548 0.127 1.254-0.579 1.127-1.127-0.042-0.138-0.096-0.258-0.162-0.37l0.004 0.008c-0.182-0.316-2.302-2.403-2.543-2.504-0.113-0.049-0.244-0.078-0.382-0.078-0.164 0-0.319 0.041-0.455 0.113l0.005-0.003zM24.8 5.898c-0.231 0.1-2.359 2.204-2.531 2.502-0.168 0.292-0.202 0.473-0.135 0.723 0.144 0.535 0.719 0.88 1.235 0.742 0.198-0.054 0.399-0.23 1.419-1.242 1.307-1.298 1.429-1.466 1.386-1.905-0.047-0.507-0.469-0.9-0.984-0.9-0.141 0-0.275 0.029-0.396 0.083l0.006-0.002zM15.042 8.064c-1.777 0.198-3.503 1.070-4.809 2.431-1.036 1.079-1.701 2.318-2.052 3.825-0.137 0.587-0.149 0.726-0.148 1.68 0.001 0.864 0.021 1.128 0.117 1.561 0.36 1.631 1.054 2.904 2.22 4.069 1.15 1.15 2.353 1.817 3.95 2.189 0.585 0.136 0.729 0.149 1.68 0.149s1.095-0.013 1.68-0.149c1.597-0.372 2.8-1.039 3.95-2.189 1.177-1.176 1.862-2.438 2.217-4.083 0.175-0.809 0.175-2.285 0-3.094-0.335-1.551-1.018-2.852-2.078-3.957-1.777-1.851-4.169-2.716-6.727-2.432zM2.727 15.040c-0.53 0.125-0.824 0.664-0.675 1.238 0.065 0.291 0.265 0.524 0.529 0.633l0.006 0.002c0.192 0.088 0.373 0.098 1.866 0.099 0.993 0 1.734-0.022 1.855-0.055 0.266-0.074 0.55-0.33 0.628-0.565 0.089-0.271 0.041-0.788-0.089-0.963-0.144-0.202-0.359-0.345-0.609-0.392l-0.006-0.001c-0.293-0.056-3.263-0.053-3.505 0.004zM25.743 15.037c-0.245 0.055-0.451 0.196-0.588 0.389l-0.002 0.003c-0.13 0.175-0.178 0.692-0.089 0.963 0.078 0.235 0.362 0.491 0.628 0.565 0.121 0.033 0.862 0.055 1.855 0.055 1.493-0.001 1.674-0.011 1.866-0.099 0.273-0.113 0.474-0.35 0.537-0.638l0.001-0.006c0.124-0.477-0.068-0.938-0.484-1.167-0.139-0.077-0.388-0.090-1.84-0.098-0.924-0.004-1.772 0.010-1.884 0.033zM8.37 22.287c-0.361 0.234-2.376 2.29-2.474 2.525-0.048 0.112-0.076 0.243-0.076 0.381 0 0.503 0.375 0.918 0.861 0.98l0.005 0c0.455 0.051 0.562-0.024 1.785-1.234 1.368-1.353 1.524-1.584 1.395-2.062-0.065-0.24-0.316-0.552-0.538-0.666-0.259-0.134-0.686-0.1-0.958 0.076zM22.638 22.233c-0.362 0.22-0.602 0.679-0.527 1.005 0.075 0.32 0.322 0.617 1.418 1.701 1.223 1.21 1.33 1.285 1.785 1.234 0.491-0.063 0.866-0.478 0.866-0.98 0-0.137-0.028-0.268-0.079-0.387l0.002 0.006c-0.098-0.235-2.113-2.291-2.474-2.525-0.292-0.189-0.732-0.213-0.992-0.054zM15.547 25.114c-0.12 0.055-0.223 0.124-0.313 0.209l0.001-0.001c-0.222 0.25-0.244 0.441-0.245 2.198-0.001 1.522 0.008 1.7 0.097 1.893 0.211 0.457 0.677 0.669 1.182 0.538 0.294-0.064 0.531-0.265 0.642-0.532l0.002-0.006c0.089-0.193 0.098-0.371 0.097-1.893-0.001-1.757-0.023-1.948-0.245-2.198-0.149-0.167-0.496-0.306-0.765-0.306-0.165 0.006-0.32 0.041-0.461 0.101l0.008-0.003z"></path>
</svg>
