<!-- Generated by IcoMoon.io -->
<svg version="1.1" xmlns="http://www.w3.org/2000/svg" width="32" height="32" viewBox="0 0 32 32">
<title>winter</title>
<path d="M15.521 2.084c-0.402 0.168-0.498 0.401-0.533 1.288l-0.028 0.732-0.831-0.55c-0.864-0.572-1.069-0.655-1.398-0.564-0.358 0.099-0.784 0.686-0.784 1.079 0 0.376 0.195 0.556 1.662 1.536l1.378 0.92v3.713l-0.147 0.092c-0.505 0.319-0.859 0.742-1.052 1.256-0.136 0.36-0.167 0.376-0.643 0.32-0.51-0.059-0.963 0.001-1.362 0.18l-0.31 0.139-1.603-0.916c-1.1-0.629-1.603-0.945-1.603-1.006-0.001-0.236-0.163-2.943-0.188-3.131-0.069-0.516-0.473-0.809-1.042-0.758-0.541 0.050-0.812 0.251-0.91 0.676-0.024 0.105-0.018 0.606 0.013 1.114s0.044 0.937 0.029 0.951c-0.014 0.015-0.287-0.124-0.604-0.308-0.864-0.499-1.248-0.492-1.647 0.031-0.092 0.131-0.166 0.282-0.213 0.445l-0.003 0.011c-0.135 0.521 0.050 0.781 0.899 1.263 0.286 0.162 0.53 0.311 0.543 0.332 0.012 0.020-0.36 0.227-0.828 0.459-0.467 0.233-0.913 0.481-0.989 0.552-0.307 0.285-0.345 0.641-0.117 1.098 0.226 0.451 0.586 0.668 0.968 0.585 0.093-0.020 0.81-0.358 1.595-0.75s1.456-0.713 1.492-0.713 0.768 0.401 1.627 0.891l1.561 0.891v0.303c0 0.436 0.174 0.943 0.454 1.323 0.132 0.179 0.24 0.373 0.24 0.432s-0.108 0.253-0.24 0.432c-0.272 0.368-0.44 0.826-0.454 1.324l-0 0.003v0.307l-1.553 0.887c-0.855 0.488-1.587 0.887-1.627 0.887-0.041 0-0.693-0.31-1.45-0.689-0.757-0.378-1.479-0.716-1.603-0.749-0.401-0.108-0.768 0.087-0.991 0.526-0.199 0.393-0.219 0.602-0.086 0.878 0.138 0.285 0.288 0.389 1.283 0.887l0.759 0.38-0.567 0.33c-0.66 0.384-0.862 0.56-0.931 0.811-0.133 0.479 0.29 1.199 0.766 1.306 0.273 0.061 0.533-0.026 1.168-0.393 0.29-0.167 0.538-0.293 0.551-0.28 0.013 0.014-0.001 0.44-0.032 0.949-0.031 0.508-0.037 1.008-0.013 1.111 0.099 0.431 0.368 0.638 0.88 0.679 0.591 0.048 0.993-0.227 1.069-0.728 0.016-0.105 0.067-0.875 0.113-1.711 0.047-0.836 0.101-1.535 0.121-1.552 0.020-0.018 0.742-0.434 1.603-0.925l1.567-0.892 0.309 0.139c0.468 0.21 0.848 0.264 1.345 0.191 0.489-0.072 0.516-0.059 0.654 0.306 0.185 0.489 0.494 0.884 0.904 1.156l0.295 0.196v3.709l-1.378 0.92c-1.467 0.98-1.662 1.16-1.662 1.536 0 0.375 0.372 0.913 0.74 1.067 0.316 0.133 0.532 0.050 1.437-0.549l0.836-0.553 0.027 0.732c0.029 0.796 0.088 0.981 0.382 1.2 0.293 0.218 0.97 0.218 1.263-0.001 0.293-0.218 0.352-0.404 0.381-1.199l0.027-0.732 0.836 0.553c0.905 0.599 1.121 0.682 1.437 0.549 0.368-0.154 0.74-0.692 0.74-1.067 0-0.376-0.195-0.556-1.662-1.536l-1.378-0.92 0.006-3.742 0.307-0.218c0.345-0.246 0.596-0.59 0.762-1.045 0.157-0.43 0.179-0.442 0.674-0.365 0.504 0.078 0.892 0.020 1.374-0.205l0.327-0.153 1.611 0.92c0.886 0.506 1.62 0.929 1.631 0.94s0.059 0.704 0.105 1.54c0.098 1.762 0.108 1.845 0.248 2.074 0.271 0.445 1.188 0.511 1.586 0.113 0.246-0.246 0.281-0.496 0.217-1.544-0.031-0.505-0.046-0.929-0.033-0.943 0.013-0.013 0.261 0.113 0.551 0.28 0.635 0.367 0.895 0.454 1.168 0.393 0.476-0.107 0.899-0.827 0.766-1.306-0.069-0.25-0.271-0.427-0.93-0.81l-0.566-0.329 0.845-0.429c0.464-0.235 0.913-0.493 0.997-0.571 0.331-0.31 0.364-0.65 0.112-1.147-0.223-0.439-0.59-0.634-0.991-0.526-0.124 0.033-0.848 0.372-1.609 0.752-0.76 0.381-1.423 0.685-1.474 0.676s-0.801-0.422-1.668-0.917l-1.576-0.901-0.026-0.406c-0.030-0.484-0.212-0.921-0.498-1.268l0.003 0.004c-0.102-0.125-0.185-0.279-0.185-0.342s0.083-0.217 0.185-0.342c0.293-0.358 0.466-0.797 0.495-1.26l0.025-0.402 1.609-0.918c0.885-0.505 1.638-0.918 1.674-0.918s0.708 0.321 1.492 0.713c0.785 0.392 1.502 0.73 1.595 0.75 0.382 0.083 0.742-0.134 0.968-0.585 0.228-0.457 0.19-0.813-0.117-1.098-0.076-0.071-0.522-0.319-0.989-0.552s-0.84-0.439-0.828-0.459c0.013-0.021 0.257-0.17 0.543-0.332 0.833-0.473 1.032-0.752 0.9-1.262-0.079-0.303-0.291-0.605-0.532-0.756-0.127-0.080-0.236-0.1-0.46-0.085-0.244 0.016-0.391 0.075-0.872 0.353-0.317 0.184-0.59 0.323-0.604 0.308-0.015-0.014-0.001-0.44 0.030-0.945 0.064-1.044 0.029-1.298-0.212-1.539-0.396-0.396-1.323-0.333-1.591 0.108-0.14 0.229-0.15 0.313-0.247 2.074-0.047 0.836-0.101 1.536-0.121 1.555s-0.753 0.442-1.628 0.941l-1.592 0.908-0.344-0.161c-0.414-0.194-0.839-0.252-1.382-0.189-0.278 0.032-0.426 0.029-0.474-0.011-0.038-0.032-0.12-0.197-0.182-0.366-0.166-0.455-0.417-0.799-0.762-1.045l-0.307-0.218-0.006-3.742 1.378-0.92c1.467-0.98 1.662-1.16 1.662-1.536 0-0.393-0.426-0.98-0.784-1.079-0.329-0.091-0.534-0.008-1.398 0.564l-0.831 0.55-0.027-0.732c-0.022-0.604-0.045-0.764-0.133-0.913-0.186-0.317-0.357-0.404-0.817-0.418-0.225-0.007-0.469 0.012-0.542 0.043zM11.253 7.235c-0.482 0.166-0.799 0.518-0.799 0.886-0.001 0.209 0.508 1.267 0.783 1.63 0.291 0.384 0.682 0.477 1.136 0.271 0.499-0.225 0.757-0.638 0.647-1.036-0.079-0.287-0.639-1.297-0.846-1.526-0.102-0.113-0.229-0.202-0.372-0.257l-0.007-0.002c-0.244-0.067-0.251-0.067-0.542 0.034zM20.18 7.205c-0.092 0.026-0.251 0.141-0.353 0.254-0.208 0.229-0.768 1.24-0.847 1.527-0.11 0.398 0.148 0.811 0.647 1.036 0.454 0.206 0.845 0.113 1.136-0.271 0.275-0.363 0.784-1.421 0.783-1.63 0-0.374-0.32-0.723-0.815-0.889-0.283-0.095-0.313-0.096-0.551-0.027zM16.298 12.417c0.172 0.459 0.368 0.735 0.727 1.024 0.529 0.426 1.151 0.576 1.916 0.46 0.27-0.040 0.313-0.033 0.414 0.067 0.163 0.163 0.14 0.276-0.128 0.621-0.349 0.449-0.469 0.801-0.474 1.384-0.005 0.6 0.095 0.91 0.451 1.397 0.289 0.397 0.31 0.48 0.165 0.659-0.094 0.116-0.114 0.118-0.521 0.066-0.545-0.069-0.965-0.011-1.376 0.192-0.608 0.299-0.936 0.662-1.177 1.303-0.21 0.559-0.473 0.515-0.737-0.123-0.386-0.936-1.404-1.526-2.385-1.384-0.49 0.071-0.515 0.066-0.641-0.138-0.108-0.175-0.11-0.196-0.030-0.306l0.271-0.377c0.231-0.321 0.4-0.855 0.4-1.262s-0.169-0.941-0.4-1.262l-0.271-0.377c-0.080-0.11-0.078-0.131 0.030-0.306 0.13-0.21 0.145-0.213 0.628-0.129 0.946 0.165 2.006-0.442 2.386-1.366 0.202-0.49 0.224-0.515 0.442-0.496 0.173 0.015 0.191 0.036 0.31 0.353zM6.703 15.035c-0.456 0.096-0.692 0.422-0.692 0.958 0 0.395 0.090 0.625 0.315 0.802 0.231 0.182 0.525 0.229 1.298 0.21 0.604-0.015 0.757-0.036 0.933-0.128 0.293-0.155 0.43-0.434 0.428-0.877-0.002-0.447-0.119-0.69-0.412-0.855-0.199-0.112-0.301-0.127-0.945-0.139-0.397-0.007-0.813 0.006-0.925 0.029zM23.733 15.032c-0.496 0.106-0.716 0.402-0.718 0.968-0.002 0.443 0.135 0.722 0.428 0.877 0.187 0.097 0.305 0.11 1.064 0.11 0.757 0 0.873-0.012 1.034-0.107 0.234-0.129 0.398-0.361 0.432-0.633l0-0.004c0.079-0.52-0.070-0.911-0.427-1.12-0.147-0.086-0.297-0.105-0.901-0.117-0.399-0.007-0.809 0.004-0.912 0.026zM11.54 21.969c-0.233 0.142-0.387 0.361-0.762 1.083-0.358 0.691-0.398 0.907-0.22 1.2 0.139 0.227 0.473 0.463 0.775 0.548 0.522 0.146 0.825-0.089 1.331-1.033 0.372-0.694 0.426-0.869 0.351-1.148-0.145-0.537-1.025-0.925-1.475-0.65zM19.65 21.967c-0.519 0.236-0.781 0.645-0.67 1.047 0.079 0.287 0.639 1.298 0.846 1.526 0.244 0.27 0.51 0.353 0.841 0.26 0.498-0.14 0.879-0.538 0.879-0.921 0.001-0.209-0.508-1.267-0.783-1.63-0.286-0.377-0.683-0.477-1.113-0.282z"></path>
</svg>
