<svg xmlns="http://www.w3.org/2000/svg" viewBox="0 0 512 512"><path d="M234.667 64.427v32h42.666v-64h-42.666v32M90.452 90.881l-14.916 14.934 19.184 19.199 19.184 19.198 15.156-15.138 15.155-15.138-18.98-18.995c-10.44-10.447-19.18-18.994-19.424-18.994-.243 0-7.155 6.72-15.359 14.934m296.313 4.06-18.98 18.995 15.155 15.138 15.156 15.138 19.184-19.198 19.184-19.199-14.916-14.934c-8.204-8.214-15.116-14.934-15.359-14.934-.244 0-8.984 8.547-19.424 18.994m-146.099 34.09c-28.43 3.156-56.045 17.111-76.942 38.883-16.571 17.264-27.211 37.101-32.829 61.206-2.189 9.39-2.385 11.621-2.363 26.88.02 13.83.334 18.047 1.863 24.974 5.76 26.105 16.868 46.467 35.518 65.108 18.412 18.402 37.663 29.069 63.207 35.023 9.361 2.182 11.669 2.387 26.88 2.387 15.211 0 17.519-.205 26.88-2.387 25.544-5.954 44.795-16.621 63.207-35.023 18.821-18.812 29.787-39.01 35.47-65.335 2.794-12.939 2.794-36.555 0-49.494-5.36-24.828-16.29-45.637-33.253-63.31-28.433-29.624-66.698-43.457-107.638-38.912M31.573 256v21.333h64.854v-42.666H31.573V256m384 0v21.333h64.854v-42.666h-64.854V256M94.291 387.415 75.53 406.191l15.14 15.139 15.139 15.14 19.201-19.187 19.202-19.187-14.71-14.728c-8.091-8.1-15.102-14.728-15.58-14.728-.478 0-9.312 8.449-19.631 18.775m288.207-4.047-14.71 14.728 19.202 19.187 19.201 19.187 15.139-15.14 15.14-15.139-18.761-18.776c-10.319-10.326-19.153-18.775-19.631-18.775-.478 0-7.489 6.628-15.58 14.728m-147.831 65.059v32h42.666v-64h-42.666v32" fill-rule="evenodd"/></svg>