<svg xmlns="http://www.w3.org/2000/svg" viewBox="0 0 512 512" style="enable-background:new 0 0 512 512" xml:space="preserve"><path d="M243.2 55.168c-18.579 35.407-26.274 49.149-28.767 51.373-1.695 1.511-2.916 1.899-4.941 1.571-2.426-.394-19.383-9.302-34.963-18.366-3.273-1.904-6.075-3.338-6.228-3.185-.152.152 2.07 10.595 4.938 23.205 13.106 57.613 18.768 85.426 18.741 92.047-.03 7.299-4.768 10.796-11.495 8.483-3.952-1.358-1.946.724-29.681-30.821l-22.641-25.752-7.121 15.432c-3.917 8.488-8.18 16.567-9.474 17.955-2.782 2.983.569 3.37-31.966-3.693-13.713-2.976-25.161-5.182-25.442-4.901-.476.475 12.766 46.124 16.636 57.351 2.428 7.043 2.296 11.164-.439 13.698-1.196 1.109-6.011 3.654-10.699 5.656-6.722 2.87-8.291 3.853-7.424 4.649.605.556 20.107 17.627 43.339 37.935 47.768 41.756 52.525 46.185 53.822 50.114 1.085 3.289.753 5.19-3.095 17.734-1.584 5.163-3.826 12.939-4.982 17.281l-2.102 7.894 1.859-.434c21.463-5.01 90.77-19.194 93.79-19.194 5.65 0 9.621 1.83 11.389 5.25 1.725 3.336 1.459 14.809-1.635 70.546-1.024 18.456-1.698 33.72-1.498 33.92.2.2 5.995.364 12.879.364 6.884 0 12.679-.164 12.879-.364.2-.2-.475-15.464-1.501-33.92-1.026-18.456-2.143-41.45-2.482-51.099-.564-16.067-.487-17.74.917-19.884 2.164-3.302 5.586-4.813 10.901-4.813 2.619 0 24.134 4.183 50.165 9.753 25.069 5.364 45.669 9.663 45.779 9.553.283-.283-4.498-17.407-7.479-26.783-1.515-4.766-2.512-9.761-2.512-12.584 0-4.209.322-5.039 3.2-8.231 1.76-1.953 23.36-21.213 48-42.799s45.273-39.676 45.852-40.201c.798-.723-1.049-1.862-7.672-4.73-11.179-4.84-12.869-6.455-12.352-11.805.212-2.207 4.5-17.585 9.527-34.174 5.028-16.588 8.924-30.377 8.658-30.643-.265-.265-11.717 1.948-25.448 4.918-13.731 2.971-25.931 5.558-27.111 5.751-4.001.652-6.196-2.366-14.033-19.289l-7.495-16.184-6.936 7.842a24564.881 24564.881 0 0 0-24.342 27.606c-9.573 10.87-18.405 20.153-19.627 20.63-4.78 1.865-7.869 1.461-10.742-1.403-2.272-2.265-2.338-2.584-1.904-9.174.499-7.575 4.591-27.572 16.044-78.405 4.217-18.718 7.547-34.152 7.401-34.299-.146-.146-2.943 1.293-6.216 3.197-15.58 9.064-32.537 17.972-34.963 18.366-2.027.329-3.24-.058-4.925-1.571-2.79-2.505-10.017-15.323-27.503-48.784-7.509-14.37-13.845-26.136-14.08-26.148-.235-.012-5.995 10.59-12.8 23.559" fill-rule="evenodd"/></svg>