<svg xmlns="http://www.w3.org/2000/svg" viewBox="0 0 512 512"><path d="M246.187 48.749c-35.56 4.446-64.196 35.447-64.726 70.071-.07 4.573-.257 8.317-.416 8.32-.158.004-2.654-1.3-5.546-2.896-12.421-6.856-24.624-9.503-40.876-8.864-9.115.358-11.591.798-19.22 3.418-29.785 10.228-49.326 35.439-51.117 65.949-1.618 27.546 12.321 53.627 36.178 67.692 2.924 1.724 5.324 3.361 5.333 3.639.009.277-1.89 1.542-4.221 2.81-16.655 9.065-29.527 25.705-35.201 45.506-2.737 9.551-2.737 27.635 0 37.186 10.385 36.242 43.364 58.84 80.398 55.092 9.306-.942 20.953-4.544 28.726-8.883 2.892-1.615 5.388-2.936 5.546-2.937.159-.001.161 2.257.004 5.018-.648 11.455 4.401 28.335 11.953 39.961 10.374 15.971 27.027 27.579 46.483 32.402 7.941 1.969 25.089 1.969 33.03 0 19.456-4.823 36.109-16.431 46.483-32.402 7.552-11.626 12.601-28.506 11.953-39.961-.157-2.761-.218-5.019-.137-5.018.082.001 2.962 1.503 6.4 3.339 17.615 9.405 39.185 11.469 57.972 5.547 12.974-4.089 22.435-9.904 31.907-19.61 27.372-28.048 27.703-73.594.738-101.52-5.309-5.497-12.022-10.789-17.407-13.72-4.531-2.466-5.064-3.242-2.819-4.103 3.584-1.375 13.713-8.891 18.69-13.868 9.505-9.505 15.439-19.731 19.33-33.311 2.737-9.551 2.737-27.635 0-37.186-8.015-27.972-29.507-48.101-57.771-54.107-4.342-.923-9.154-1.157-17.507-.852-13.573.495-20.584 2.234-31.845 7.9-4.138 2.082-7.594 3.783-7.68 3.779-.085-.003-.213-3.747-.283-8.32-.539-35.236-29.213-65.726-65.983-70.161-8.115-.979-9.886-.97-18.369.09m28.967 135.523c35.587 9.292 59.604 44.126 55.191 80.048-3.704 30.149-23.964 53.99-53.612 63.088-6.779 2.08-8.787 2.303-20.733 2.303s-13.954-.223-20.733-2.303c-14.276-4.381-24.777-10.919-34.523-21.497-35.646-38.685-20.525-100.775 29.088-119.437 13.287-4.998 31.27-5.871 45.322-2.202" fill-rule="evenodd"/></svg>