<svg xmlns="http://www.w3.org/2000/svg" viewBox="0 0 64 64"><path d="M30.483 2.192c-1.303.316-2.725 1.241-3.684 2.395-1.676 2.019-2.376 5.075-1.747 7.626.421 1.71 1.695 4.6 3.085 7.003l.534.923-.709.237c-.39.131-.986.377-1.324.547-.447.224-.628.272-.66.173a77.29 77.29 0 0 1-.384-1.359c-.805-2.9-1.832-5.513-2.707-6.88-1.467-2.293-3.94-3.731-6.8-3.954-2.504-.196-5.133 1.275-6.202 3.47-.548 1.126-.747 1.991-.748 3.254-.001 2.719 1.458 5.482 3.706 7.014 1.4.955 4.03 2.039 6.936 2.861.817.231 1.504.439 1.527.462.023.023-.089.298-.248.612s-.397.883-.528 1.264-.288.683-.348.67c-.06-.013-.725-.369-1.479-.792-2.643-1.483-5.011-2.486-6.648-2.818-1.132-.229-2.788-.158-3.944.168-1.603.453-3.273 1.524-4.282 2.745-1.674 2.026-1.984 4.879-.779 7.176 1.276 2.434 3.902 4.038 6.93 4.232 1.18.075 2.077-.068 3.567-.569 1.281-.431 3.805-1.621 5.474-2.583.626-.36 1.156-.656 1.178-.656.021 0 .148.3.28.667.133.367.381.944.551 1.282.224.448.272.628.173.661-.075.025-.815.239-1.645.476-4.688 1.337-7.319 2.769-8.736 4.756-.6.84-1.246 2.222-1.496 3.198-.234.914-.264 2.743-.058 3.574.599 2.418 2.385 4.22 4.814 4.855.957.251 3.046.166 4.105-.166 2.133-.67 3.918-2.055 4.978-3.865.869-1.485 1.981-4.446 2.652-7.064.135-.528.255-.973.265-.989.011-.016.351.134.756.332.404.198.989.443 1.298.545l.563.184-.433.764c-1.19 2.099-2.375 4.634-2.874 6.15-.746 2.265-.717 4.261.092 6.359 1.796 4.658 6.834 6.29 10.562 3.42 2.433-1.873 3.676-5.627 2.902-8.765-.421-1.71-1.695-4.6-3.085-7.003l-.534-.923.709-.237c.39-.131.986-.377 1.324-.547.447-.224.628-.272.66-.173.024.075.169.592.321 1.149.774 2.822 1.76 5.395 2.631 6.865.535.904 1.499 1.944 2.386 2.575 1.519 1.08 3.035 1.576 4.853 1.589 1.987.014 3.358-.527 4.704-1.855 1.326-1.309 1.945-2.852 1.946-4.854.001-2.705-1.473-5.499-3.698-7.01-1.385-.94-3.937-2.001-6.781-2.817-.911-.261-1.672-.492-1.693-.513-.021-.021.102-.319.274-.662.172-.343.397-.888.501-1.211.104-.323.21-.624.236-.669.026-.045.439.137.919.404 3.231 1.802 5.843 2.903 7.733 3.261 1.415.268 3.603-.085 5.062-.817.98-.491 1.389-.781 2.137-1.509 1.438-1.401 2.123-2.958 2.123-4.83 0-2.669-1.566-4.995-4.236-6.291-1.453-.705-2.265-.896-3.84-.902-1.012-.003-1.469.047-2.182.241-1.662.451-3.902 1.456-6.383 2.862-.663.376-1.245.659-1.293.629-.048-.03-.118-.204-.154-.386-.037-.182-.257-.738-.489-1.234-.286-.611-.382-.916-.294-.945.07-.023.82-.24 1.665-.481 3.745-1.068 6.348-2.285 7.726-3.61 1.089-1.047 2.08-2.782 2.478-4.336.233-.91.264-2.738.06-3.574-.078-.322-.331-.982-.561-1.465-.775-1.629-2.47-2.962-4.32-3.398-.975-.229-2.873-.151-3.968.164-2.11.607-3.973 2.037-5.05 3.875-.869 1.485-1.981 4.446-2.652 7.064-.135.528-.257.975-.27.994-.014.018-.306-.107-.649-.28a14.53 14.53 0 0 0-1.291-.554l-.667-.242.431-.759c1.187-2.093 2.372-4.63 2.871-6.145.746-2.265.717-4.261-.092-6.359-.737-1.912-1.98-3.313-3.715-4.188-1.251-.631-2.94-.822-4.318-.488m2.729 4.189c1.243.669 2.107 2.542 1.953 4.232-.066.72-.525 2.097-1.152 3.46-.48 1.04-1.932 3.74-2.013 3.74-.098 0-1.619-2.869-2.136-4.029-.682-1.528-.955-2.368-1.027-3.156-.151-1.651.663-3.496 1.848-4.191.904-.53 1.617-.545 2.527-.056m-15.584 6.977c1.315.624 1.918 1.361 2.772 3.389.609 1.446 1.747 5.088 1.628 5.208-.071.07-1.894-.458-3.521-1.02-2.084-.719-3.287-1.328-3.968-2.008-1.491-1.491-1.878-3.917-.822-5.15.591-.691 1.106-.89 2.183-.845.783.033 1.029.093 1.728.426m31.688-.292a2.588 2.588 0 0 1 1.351 1.358c.206.48.232.684.184 1.451-.046.745-.119 1.022-.445 1.68-.733 1.483-1.773 2.229-4.486 3.219-1.432.523-3.886 1.243-3.965 1.163-.073-.073.49-2.057 1.045-3.681.502-1.47 1.335-3.22 1.791-3.764.439-.524 1.404-1.15 2.132-1.383.739-.236 1.881-.257 2.393-.043M33.422 23.833c2.212.423 4.13 1.686 5.351 3.522.916 1.38 1.299 2.501 1.402 4.112.322 5.02-3.671 9.069-8.703 8.827-1.855-.089-3.454-.716-4.92-1.928-1.236-1.022-2.298-2.708-2.732-4.339-.283-1.064-.256-3.113.056-4.208.913-3.204 3.509-5.505 6.844-6.065.613-.103 1.955-.064 2.702.079m-21.31 5.239c1.408.459 5.808 2.679 5.808 2.93 0 .256-4.334 2.43-5.867 2.944-1.099.368-2.057.386-3.084.058-2.644-.846-3.483-3.341-1.682-5.001 1.276-1.176 3.035-1.516 4.825-.931m42.94-.055c1.113.375 1.918 1.005 2.362 1.849.318.606.321 1.66.004 2.254-.31.583-1.038 1.263-1.712 1.599-.71.354-1.976.624-2.533.54-.743-.113-2.09-.598-3.449-1.242-1.387-.658-3.644-1.902-3.644-2.009 0-.102 2.448-1.463 3.663-2.036 2.495-1.177 3.899-1.43 5.309-.955m-32.972 13.1c0 .165-.833 2.934-1.176 3.91-.432 1.229-1.055 2.567-1.491 3.2-.734 1.067-2.305 1.878-3.653 1.886-1.144.007-1.994-.532-2.427-1.537-.206-.48-.232-.684-.184-1.451.046-.745.119-1.022.445-1.68.581-1.176 1.185-1.732 2.632-2.426 1.324-.634 2.469-1.057 4.361-1.613 1.343-.394 1.493-.423 1.493-.289m21.542.343c4.47 1.349 5.954 2.222 6.798 4 .688 1.448.614 2.906-.192 3.822-.74.841-1.881 1.049-3.311.603-1.469-.457-2.325-1.355-3.207-3.365-.475-1.081-1.79-5.097-1.79-5.465 0-.083.401.012 1.702.405M32.84 47.63c.838 1.538 1.652 3.291 2.052 4.423.34.961.341 2.558.004 3.425-.974 2.501-3.14 3.274-4.727 1.688-.92-.92-1.456-2.439-1.334-3.779.066-.72.525-2.097 1.152-3.46.48-1.04 1.932-3.74 2.013-3.74.029 0 .407.649.84 1.443" fill-rule="evenodd"/></svg>