<svg xmlns="http://www.w3.org/2000/svg" viewBox="0 0 32 32" style="enable-background:new 0 0 32 32" xml:space="preserve"><path d="M15.547 2.102c-.206.092-.374.275-.478.524-.068.164-.082.477-.082 1.839 0 .965.023 1.723.055 1.84.12.431.472.682.958.682s.838-.251.958-.682c.032-.117.054-.875.054-1.852-.001-1.493-.011-1.674-.099-1.866-.114-.247-.29-.423-.503-.503-.206-.078-.669-.068-.863.018M6.356 5.928a.994.994 0 0 0-.529.758c-.051.455.024.562 1.234 1.785 1.084 1.096 1.381 1.343 1.701 1.418.548.127 1.254-.579 1.127-1.127a1.672 1.672 0 0 0-.158-.362c-.182-.316-2.302-2.403-2.543-2.504a.975.975 0 0 0-.832.032m18.444-.03c-.231.1-2.359 2.204-2.531 2.502-.168.292-.202.473-.135.723.144.535.719.88 1.235.742.198-.054.399-.23 1.419-1.242 1.307-1.298 1.429-1.466 1.386-1.905a.988.988 0 0 0-1.374-.82m-9.758 2.166c-1.777.198-3.503 1.07-4.809 2.431-1.036 1.079-1.701 2.318-2.052 3.825-.137.587-.149.726-.148 1.68.001.864.021 1.128.117 1.561.36 1.631 1.054 2.904 2.22 4.069 1.15 1.15 2.353 1.817 3.95 2.189.585.136.729.149 1.68.149s1.095-.013 1.68-.149c1.597-.372 2.8-1.039 3.95-2.189 1.177-1.176 1.862-2.438 2.217-4.083.175-.809.175-2.285 0-3.094-.335-1.551-1.018-2.852-2.078-3.957-1.777-1.851-4.169-2.716-6.727-2.432M2.727 15.04c-.53.125-.824.664-.675 1.238a.888.888 0 0 0 .535.635c.192.088.373.098 1.866.099.993 0 1.734-.022 1.855-.055.266-.074.55-.33.628-.565.089-.271.041-.788-.089-.963a.965.965 0 0 0-.615-.393c-.293-.056-3.263-.053-3.505.004m23.016-.003a.979.979 0 0 0-.59.392c-.13.175-.178.692-.089.963.078.235.362.491.628.565.121.033.862.055 1.855.055 1.493-.001 1.674-.011 1.866-.099a.895.895 0 0 0 .538-.644c.124-.477-.068-.938-.484-1.167-.139-.077-.388-.09-1.84-.098-.924-.004-1.772.01-1.884.033M8.37 22.287c-.361.234-2.376 2.29-2.474 2.525a.988.988 0 0 0 .79 1.361c.455.051.562-.024 1.785-1.234 1.368-1.353 1.524-1.584 1.395-2.062-.065-.24-.316-.552-.538-.666-.259-.134-.686-.1-.958.076m14.268-.054c-.362.22-.602.679-.527 1.005.075.32.322.617 1.418 1.701 1.223 1.21 1.33 1.285 1.785 1.234a.988.988 0 0 0 .79-1.361c-.098-.235-2.113-2.291-2.474-2.525-.292-.189-.732-.213-.992-.054m-7.091 2.881a1.131 1.131 0 0 0-.312.208c-.222.25-.244.441-.245 2.198-.001 1.522.008 1.7.097 1.893.211.457.677.669 1.182.538a.895.895 0 0 0 .644-.538c.089-.193.098-.371.097-1.893-.001-1.757-.023-1.948-.245-2.198-.149-.167-.496-.306-.765-.306a1.29 1.29 0 0 0-.453.098" fill-rule="evenodd"/></svg>