<svg xmlns="http://www.w3.org/2000/svg" viewBox="0 0 32 32" style="enable-background:new 0 0 32 32" xml:space="preserve"><path d="M15.521 2.084c-.402.168-.498.401-.533 1.288l-.028.732-.831-.55c-.864-.572-1.069-.655-1.398-.564-.358.099-.784.686-.784 1.079 0 .376.195.556 1.662 1.536l1.378.92v3.713l-.147.092c-.505.319-.859.742-1.052 1.256-.136.36-.167.376-.643.32-.51-.059-.963.001-1.362.18l-.31.139-1.603-.916c-1.1-.629-1.603-.945-1.603-1.006-.001-.236-.163-2.943-.188-3.131-.069-.516-.473-.809-1.042-.758-.541.05-.812.251-.91.676-.024.105-.018.606.013 1.114.031.509.044.937.029.951-.014.015-.287-.124-.604-.308-.864-.499-1.248-.492-1.647.031a1.512 1.512 0 0 0-.216.456c-.135.521.05.781.899 1.263.286.162.53.311.543.332.012.02-.36.227-.828.459-.467.233-.913.481-.989.552-.307.285-.345.641-.117 1.098.226.451.586.668.968.585.093-.02.81-.358 1.595-.75.784-.392 1.456-.713 1.492-.713.036 0 .768.401 1.627.891l1.561.891v.303c0 .436.174.943.454 1.323.132.179.24.373.24.432s-.108.253-.24.432a2.354 2.354 0 0 0-.454 1.327v.307l-1.553.887c-.855.488-1.587.887-1.627.887-.041 0-.693-.31-1.45-.689-.757-.378-1.479-.716-1.603-.749-.401-.108-.768.087-.991.526-.199.393-.219.602-.086.878.138.285.288.389 1.283.887l.759.38-.567.33c-.66.384-.862.56-.931.811-.133.479.29 1.199.766 1.306.273.061.533-.026 1.168-.393.29-.167.538-.293.551-.28.013.014-.001.44-.032.949-.031.508-.037 1.008-.013 1.111.099.431.368.638.88.679.591.048.993-.227 1.069-.728.016-.105.067-.875.113-1.711.047-.836.101-1.535.121-1.552.02-.018.742-.434 1.603-.925l1.567-.892.309.139c.468.21.848.264 1.345.191.489-.072.516-.059.654.306.185.489.494.884.904 1.156l.295.196v3.709l-1.378.92c-1.467.98-1.662 1.16-1.662 1.536 0 .375.372.913.74 1.067.316.133.532.05 1.437-.549l.836-.553.027.732c.029.796.088.981.382 1.2.293.218.97.218 1.263-.001.293-.218.352-.404.381-1.199l.027-.732.836.553c.905.599 1.121.682 1.437.549.368-.154.74-.692.74-1.067 0-.376-.195-.556-1.662-1.536l-1.378-.92.003-1.871.003-1.871.307-.218c.345-.246.596-.59.762-1.045.157-.43.179-.442.674-.365.504.078.892.02 1.374-.205l.327-.153 1.611.92c.886.506 1.62.929 1.631.94.011.011.059.704.105 1.54.098 1.762.108 1.845.248 2.074.271.445 1.188.511 1.586.113.246-.246.281-.496.217-1.544-.031-.505-.046-.929-.033-.943.013-.013.261.113.551.28.635.367.895.454 1.168.393.476-.107.899-.827.766-1.306-.069-.25-.271-.427-.93-.81l-.566-.329.845-.429c.464-.235.913-.493.997-.571.331-.31.364-.65.112-1.147-.223-.439-.59-.634-.991-.526-.124.033-.848.372-1.609.752-.76.381-1.423.685-1.474.676-.051-.009-.801-.422-1.668-.917l-1.576-.901-.026-.406a2.2 2.2 0 0 0-.495-1.264c-.102-.125-.185-.279-.185-.342s.083-.217.185-.342c.293-.358.466-.797.495-1.26l.025-.402 1.609-.918c.885-.505 1.638-.918 1.674-.918.036 0 .708.321 1.492.713.785.392 1.502.73 1.595.75.382.083.742-.134.968-.585.228-.457.19-.813-.117-1.098-.076-.071-.522-.319-.989-.552-.468-.232-.84-.439-.828-.459.013-.021.257-.17.543-.332.833-.473 1.032-.752.9-1.262-.079-.303-.291-.605-.532-.756-.127-.08-.236-.1-.46-.085-.244.016-.391.075-.872.353-.317.184-.59.323-.604.308-.015-.014-.001-.44.03-.945.064-1.044.029-1.298-.212-1.539-.396-.396-1.323-.333-1.591.108-.14.229-.15.313-.247 2.074-.047.836-.101 1.536-.121 1.555-.02.018-.753.442-1.628.941l-1.592.908-.344-.161c-.414-.194-.839-.252-1.382-.189-.278.032-.426.029-.474-.011-.038-.032-.12-.197-.182-.366-.166-.455-.417-.799-.762-1.045l-.307-.218-.003-1.871-.003-1.871 1.378-.92c1.467-.98 1.662-1.16 1.662-1.536 0-.393-.426-.98-.784-1.079-.329-.091-.534-.008-1.398.564l-.831.55-.027-.732c-.022-.604-.045-.764-.133-.913-.186-.317-.357-.404-.817-.418-.225-.007-.469.012-.542.043m-4.268 5.151c-.482.166-.799.518-.799.886-.001.209.508 1.267.783 1.63.291.384.682.477 1.136.271.499-.225.757-.638.647-1.036-.079-.287-.639-1.297-.846-1.526a.96.96 0 0 0-.379-.259c-.244-.067-.251-.067-.542.034m8.927-.03c-.092.026-.251.141-.353.254-.208.229-.768 1.24-.847 1.527-.11.398.148.811.647 1.036.454.206.845.113 1.136-.271.275-.363.784-1.421.783-1.63 0-.374-.32-.723-.815-.889-.283-.095-.313-.096-.551-.027m-3.882 5.212c.172.459.368.735.727 1.024.529.426 1.151.576 1.916.46.27-.04.313-.033.414.067.163.163.14.276-.128.621-.349.449-.469.801-.474 1.384-.005.6.095.91.451 1.397.289.397.31.48.165.659-.094.116-.114.118-.521.066-.545-.069-.965-.011-1.376.192-.608.299-.936.662-1.177 1.303-.21.559-.473.515-.737-.123-.386-.936-1.404-1.526-2.385-1.384-.49.071-.515.066-.641-.138-.108-.175-.11-.196-.03-.306l.271-.377c.231-.321.4-.855.4-1.262 0-.407-.169-.941-.4-1.262l-.271-.377c-.08-.11-.078-.131.03-.306.13-.21.145-.213.628-.129.946.165 2.006-.442 2.386-1.366.202-.49.224-.515.442-.496.173.015.191.036.31.353m-9.595 2.618c-.456.096-.692.422-.692.958 0 .395.09.625.315.802.231.182.525.229 1.298.21.604-.015.757-.036.933-.128.293-.155.43-.434.428-.877-.002-.447-.119-.69-.412-.855-.199-.112-.301-.127-.945-.139-.397-.007-.813.006-.925.029m17.03-.003c-.496.106-.716.402-.718.968-.002.443.135.722.428.877.187.097.305.11 1.064.11.757 0 .873-.012 1.034-.107a.84.84 0 0 0 .432-.637c.079-.52-.07-.911-.427-1.12-.147-.086-.297-.105-.901-.117-.399-.007-.809.004-.912.026M11.54 21.969c-.233.142-.387.361-.762 1.083-.358.691-.398.907-.22 1.2.139.227.473.463.775.548.522.146.825-.089 1.331-1.033.372-.694.426-.869.351-1.148-.145-.537-1.025-.925-1.475-.65m8.11-.002c-.519.236-.781.645-.67 1.047.079.287.639 1.298.846 1.526.244.27.51.353.841.26.498-.14.879-.538.879-.921.001-.209-.508-1.267-.783-1.63-.286-.377-.683-.477-1.113-.282" fill-rule="evenodd"/></svg>