<svg xmlns="http://www.w3.org/2000/svg" aria-hidden="true">
  <defs>
    <symbol id="icon-calendar" viewBox="0 0 32 32">
      <path
        d="M6 29.333c-.533 0-1-.2-1.4-.6s-.6-.867-.6-1.4V6.666c0-.533.2-1 .6-1.4s.867-.6 1.4-.6h2.167v-2h2.167v2h11.333v-2h2.167v2h2.167c.533 0 1 .2 1.4.6s.6.867.6 1.4v20.667c0 .533-.2 1-.6 1.4s-.867.6-1.4.6h-20zm0-2h20V13H6v14.333zM6 11h20V6.667H6V11zm0 0zm10 7.667c-.378 0-.694-.128-.95-.383s-.383-.572-.383-.95.128-.694.383-.95.572-.383.95-.383.694.128.95.383.383.572.383.95-.128.694-.383.95-.572.383-.95.383zm-5.333 0c-.378 0-.694-.128-.95-.383s-.383-.572-.383-.95.128-.694.383-.95.572-.383.95-.383.694.128.95.383.383.572.383.95-.128.694-.383.95-.572.383-.95.383zm10.666 0c-.378 0-.694-.128-.95-.383s-.383-.572-.383-.95.128-.694.383-.95.572-.383.95-.383.694.128.95.383.383.572.383.95-.128.694-.383.95-.572.383-.95.383zM16 24c-.378 0-.694-.128-.95-.383s-.383-.572-.383-.95.128-.694.383-.95.572-.383.95-.383.694.128.95.383.383.572.383.95-.128.694-.383.95S16.378 24 16 24zm-5.333 0c-.378 0-.694-.128-.95-.383s-.383-.572-.383-.95.128-.694.383-.95.572-.383.95-.383.694.128.95.383.383.572.383.95-.128.694-.383.95-.572.383-.95.383zm10.666 0c-.378 0-.694-.128-.95-.383s-.383-.572-.383-.95.128-.694.383-.95.572-.383.95-.383.694.128.95.383.383.572.383.95-.128.694-.383.95-.572.383-.95.383z" />
    </symbol>
    <symbol id="icon-checked" viewBox="0 0 32 32">
      <path fill="#4d1299" d="M32 16c0 8.837-7.163 16-16 16S0 24.837 0 16 7.163 0 16 0s16 7.163 16 16z" />
      <path fill="#fff" d="m14.393 21.942-5.256-5.447 1.84-1.906 3.416 3.54 8.672-8.987 1.84 1.906-10.512 10.894z"
        style="fill:var(--color2, #fff)" />
    </symbol>
    <symbol id="icon-clock" viewBox="0 0 32 32">
      <path
        d="m20.9 22.433 1.5-1.5-5.3-5.333V8.9h-2v7.5l5.8 6.033zm-4.9 6.9c-1.822 0-3.544-.35-5.167-1.05s-3.039-1.656-4.25-2.867c-1.211-1.211-2.167-2.628-2.867-4.25s-1.05-3.344-1.05-5.167c0-1.822.35-3.544 1.05-5.167s1.656-3.039 2.867-4.25c1.211-1.211 2.628-2.167 4.25-2.867s3.344-1.05 5.167-1.05c1.822 0 3.544.35 5.167 1.05s3.039 1.656 4.25 2.867c1.211 1.211 2.167 2.628 2.867 4.25s1.05 3.344 1.05 5.167c0 1.822-.35 3.544-1.05 5.167s-1.656 3.039-2.867 4.25c-1.211 1.211-2.628 2.167-4.25 2.867s-3.344 1.05-5.167 1.05zm0-2c3.111 0 5.778-1.111 8-3.333s3.333-4.889 3.333-8c0-3.111-1.111-5.778-3.333-8s-4.889-3.333-8-3.333c-3.111 0-5.778 1.111-8 3.333s-3.333 4.889-3.333 8c0 3.111 1.111 5.778 3.333 8s4.889 3.333 8 3.333z" />
    </symbol>
    <symbol id="icon-facebook" viewBox="0 0 32 32">
      <path
        d="M17.54 26.667V15.999h2.761l.366-3.676H17.54l.005-1.84c0-.959.085-1.473 1.377-1.473h1.726V5.333h-2.762c-3.317 0-4.485 1.783-4.485 4.782v2.207h-2.068v3.676h2.068v10.668h4.139z" />
    </symbol>
    <symbol id="icon-instagram" viewBox="0 0 32 32">
      <path
        d="M16 6.667c-2.535 0-2.852.011-3.848.056-.994.045-1.673.203-2.266.434a4.57 4.57 0 0 0-1.653 1.076 4.562 4.562 0 0 0-1.076 1.653c-.23.594-.388 1.273-.434 2.267-.045.995-.056 1.312-.056 3.847s.011 2.852.056 3.848c.045.994.203 1.673.434 2.266a4.57 4.57 0 0 0 1.076 1.653c.466.475 1.03.842 1.653 1.076.594.23 1.272.388 2.266.434.996.045 1.313.056 3.848.056s2.852-.011 3.848-.056c.994-.045 1.672-.204 2.266-.434a4.57 4.57 0 0 0 1.653-1.076 4.562 4.562 0 0 0 1.076-1.653c.23-.594.388-1.272.434-2.266.045-.996.056-1.313.056-3.848s-.011-2.852-.056-3.848c-.045-.994-.203-1.672-.434-2.266a4.575 4.575 0 0 0-1.076-1.653 4.562 4.562 0 0 0-1.653-1.076c-.594-.23-1.273-.388-2.267-.434-.995-.045-1.312-.056-3.847-.056zm0 1.682c2.492 0 2.788.009 3.772.054.91.042 1.404.193 1.733.322.436.169.747.371 1.073.697s.529.638.698 1.073c.128.329.28.823.322 1.733.045.984.054 1.28.054 3.772s-.009 2.788-.054 3.772c-.042.91-.193 1.404-.322 1.733a2.886 2.886 0 0 1-.698 1.073c-.301.31-.668.548-1.073.698-.329.128-.823.28-1.733.322-.984.045-1.279.054-3.772.054s-2.788-.009-3.772-.054c-.91-.042-1.404-.193-1.733-.322a2.886 2.886 0 0 1-1.073-.698 2.898 2.898 0 0 1-.698-1.073c-.128-.329-.28-.823-.322-1.733-.045-.984-.054-1.28-.054-3.772s.009-2.788.054-3.772c.042-.91.193-1.404.322-1.733.169-.436.372-.747.698-1.073.301-.31.668-.548 1.073-.697.329-.128.823-.28 1.733-.322.984-.045 1.28-.054 3.772-.054z" />
      <path
        d="M15.99 19.007c-.397 0-.79-.079-1.157-.234a3.036 3.036 0 0 1-1.636-1.662 3.11 3.11 0 0 1 .655-3.346c.281-.285.614-.511.981-.666s.76-.234 1.157-.234c.802 0 1.57.324 2.137.9s.885 1.357.885 2.172-.318 1.596-.885 2.172a3 3 0 0 1-2.137.9zm0-7.803c-1.235 0-2.419.498-3.292 1.386s-1.364 2.091-1.364 3.345c0 1.255.491 2.458 1.364 3.346s2.057 1.386 3.292 1.386c1.235 0 2.419-.498 3.292-1.386s1.364-2.091 1.364-3.346-.49-2.458-1.364-3.345-2.058-1.386-3.292-1.386zm6.01-.086c0 .297-.116.581-.322.791a1.09 1.09 0 0 1-1.556 0 1.13 1.13 0 0 1 0-1.582 1.09 1.09 0 0 1 1.556 0c.206.21.322.494.322.791z" />
    </symbol>
    <symbol id="icon-location" viewBox="0 0 32 32">
      <path
        d="M16 15.667c.644 0 1.194-.228 1.65-.683s.683-1.006.683-1.65c0-.644-.228-1.194-.683-1.65s-1.006-.683-1.65-.683c-.644 0-1.194.228-1.65.683s-.683 1.006-.683 1.65c0 .644.228 1.194.683 1.65s1.006.683 1.65.683zM16 26.7c2.956-2.689 5.139-5.128 6.55-7.317s2.117-4.117 2.117-5.783c0-2.622-.839-4.767-2.517-6.433s-3.728-2.5-6.15-2.5-4.472.833-6.15 2.5-2.517 3.811-2.517 6.433c0 1.667.722 3.594 2.167 5.783s3.611 4.628 6.5 7.317zm0 2.633c-3.578-3.044-6.25-5.872-8.017-8.483s-2.65-5.028-2.65-7.25c0-3.333 1.072-5.989 3.217-7.967S13.178 2.666 16 2.666s5.306.989 7.45 2.967 3.217 4.633 3.217 7.967c0 2.222-.883 4.639-2.65 7.25S19.578 26.289 16 29.333z" />
    </symbol>
    <symbol id="icon-logo" viewBox="0 0 25 32">
      <path
        d="M19.648 17.652V8.11l-7.314-5.726L5.02 8.11v9.542h14.628zm2.089 1.037a.975.975 0 0 1-.08.397 1.028 1.028 0 0 1-.564.561 1.052 1.052 0 0 1-.4.079H3.975a1.008 1.008 0 0 1-.4-.079 1.065 1.065 0 0 1-.338-.224.985.985 0 0 1-.226-.337 1.02 1.02 0 0 1-.079-.397V7.607a1.029 1.029 0 0 1 .397-.814L11.688.249a1.04 1.04 0 0 1 .648-.223 1.055 1.055 0 0 1 .648.223l8.359 6.543a1.03 1.03 0 0 1 .397.815v11.082zM7.11 10.393h2.089a3.114 3.114 0 0 0 .37 1.467 3.317 3.317 0 0 0 .548.733 2.95 2.95 0 0 0 .475.386 3.344 3.344 0 0 0 .831.391 3.016 3.016 0 0 0 .603.119 3.155 3.155 0 0 0 2.915-1.367 3.035 3.035 0 0 0 .393-.826 2.982 2.982 0 0 0 .135-.903h2.09c0 .17-.009.339-.025.508s-.042.337-.076.503a5.025 5.025 0 0 1-.297.973 4.944 4.944 0 0 1-.788 1.305 5.336 5.336 0 0 1-.724.719 5.071 5.071 0 0 1-.852.565 5.208 5.208 0 0 1-1.951.587 5.466 5.466 0 0 1-1.024 0 5.12 5.12 0 0 1-1.005-.199 5.137 5.137 0 0 1-1.798-.953 5.315 5.315 0 0 1-1.029-1.128 5.49 5.49 0 0 1-.264-.436 5.473 5.473 0 0 1-.392-.939 5.354 5.354 0 0 1-.2-.997 5.382 5.382 0 0 1-.025-.508z" />
      <path fill="#d854a5" d="M8.37 6.566h2.758v2.746H8.37V6.566z" style="fill:var(--color3, #d854a5)" />
      <path
        d="M1.736 24.88c-.35 0-.656-.074-.918-.224a1.512 1.512 0 0 1-.605-.646 2.175 2.175 0 0 1-.212-.987c0-.375.071-.701.212-.98.141-.279.343-.495.605-.646s.568-.226.918-.226c.227 0 .44.034.638.101.2.067.377.163.532.289a.294.294 0 0 1 .093.111.34.34 0 0 1 .025.136.295.295 0 0 1-.063.191.184.184 0 0 1-.149.075.387.387 0 0 1-.212-.07 1.446 1.446 0 0 0-.411-.229 1.3 1.3 0 0 0-.421-.065c-.358 0-.629.112-.812.334s-.275.55-.275.98c0 .436.091.765.275.987.183.221.454.332.812.332.146 0 .283-.021.409-.065.126-.045.267-.121.424-.226a.776.776 0 0 1 .103-.053.308.308 0 0 1 .108-.02c.059 0 .108.026.149.078.042.05.063.113.063.188a.37.37 0 0 1-.025.138.273.273 0 0 1-.093.108 1.646 1.646 0 0 1-.532.291 2.04 2.04 0 0 1-.638.098zM5.196 24.88c-.353 0-.66-.074-.918-.224a1.52 1.52 0 0 1-.6-.646 2.175 2.175 0 0 1-.212-.987c0-.375.069-.701.209-.98.139-.279.339-.495.6-.646s.568-.226.921-.226c.354 0 .662.075.921.226s.457.366.595.646c.139.278.209.605.209.98 0 .377-.071.706-.212.987-.14.28-.339.495-.598.646a1.805 1.805 0 0 1-.916.224zm0-.528c.333 0 .593-.114.78-.344.188-.229.283-.558.283-.985s-.095-.754-.283-.982c-.187-.227-.447-.342-.78-.342-.337 0-.598.114-.785.342s-.28.555-.28.982c0 .427.093.756.28.985s.448.344.785.344zM10.789 21.192c.097 0 .175.03.232.09.059.06.088.14.088.239v3.037a.307.307 0 0 1-.083.226c-.054.053-.126.08-.214.08s-.16-.027-.212-.08a.317.317 0 0 1-.078-.226v-2.115l-.875 1.653a.493.493 0 0 1-.134.168.283.283 0 0 1-.169.053.293.293 0 0 1-.172-.05.506.506 0 0 1-.134-.171l-.88-1.625v2.088a.313.313 0 0 1-.081.224c-.052.055-.123.083-.212.083s-.16-.027-.212-.08a.317.317 0 0 1-.078-.226v-3.037c0-.099.028-.178.086-.239s.134-.09.23-.09c.132 0 .237.074.313.221l1.145 2.171 1.138-2.171c.076-.147.177-.221.303-.221zM12.201 24.865c-.1 0-.179-.03-.24-.09a.328.328 0 0 1-.091-.241v-3.002c0-.099.028-.176.086-.231s.135-.083.235-.083H14c.208 0 .313.09.313.269 0 .175-.105.261-.313.261h-1.473v.985h1.37c.208 0 .313.089.313.266 0 .175-.105.261-.313.261h-1.37v1.274c0 .099-.03.18-.088.241a.317.317 0 0 1-.237.09zM16.377 24.88c-.353 0-.66-.074-.918-.224a1.52 1.52 0 0 1-.6-.646 2.175 2.175 0 0 1-.212-.987c0-.375.069-.701.209-.98.139-.279.339-.495.6-.646s.568-.226.921-.226c.354 0 .662.075.921.226s.457.366.595.646c.139.278.209.605.209.98 0 .377-.071.706-.212.987-.14.28-.339.495-.598.646a1.805 1.805 0 0 1-.916.224zm0-.528c.333 0 .593-.114.78-.344.188-.229.283-.558.283-.985s-.095-.754-.283-.982c-.187-.227-.447-.342-.78-.342-.337 0-.598.114-.785.342s-.28.555-.28.982c0 .427.093.756.28.985s.448.344.785.344zM21.652 24.42c.04.06.061.12.061.178a.242.242 0 0 1-.096.196.358.358 0 0 1-.381.037.33.33 0 0 1-.126-.116l-.684-1.035a.663.663 0 0 0-.219-.231.595.595 0 0 0-.3-.068h-.505v1.151a.34.34 0 0 1-.088.244c-.059.058-.138.088-.237.088s-.179-.029-.24-.088a.326.326 0 0 1-.091-.244V21.53c0-.099.028-.176.086-.231s.135-.083.235-.083h1.287c.412 0 .725.092.941.276.215.183.323.447.323.791 0 .281-.08.512-.24.691s-.386.295-.679.347a.655.655 0 0 1 .262.128c.076.06.149.146.222.256l.469.713zm-1.39-1.545c.25 0 .434-.047.55-.141s.174-.239.174-.435c0-.197-.058-.342-.174-.432s-.3-.136-.55-.136h-.868v1.143h.868zM23.49 24.86a.336.336 0 0 1-.245-.088.319.319 0 0 1-.091-.239v-2.771h-.936c-.207 0-.31-.09-.31-.271 0-.182.103-.274.31-.274h2.538c.207 0 .31.092.31.274 0 .181-.103.271-.31.271h-.936v2.771c0 .099-.03.178-.091.239a.33.33 0 0 1-.24.088zM6.334 30a.26.26 0 0 1 .189.07.233.233 0 0 1 .073.181v1.103c0 .158-.021.269-.063.334-.04.065-.125.118-.252.158a2.43 2.43 0 0 1-.479.113 3.72 3.72 0 0 1-.525.04c-.373 0-.698-.073-.974-.219a1.506 1.506 0 0 1-.631-.638c-.146-.279-.219-.613-.219-1 0-.378.073-.707.219-.985.146-.279.353-.494.621-.643s.583-.224.949-.224c.484 0 .881.13 1.191.389.04.039.069.077.088.116.02.037.03.08.03.131a.295.295 0 0 1-.063.191.184.184 0 0 1-.149.075c-.039 0-.073-.006-.103-.018s-.067-.031-.108-.058a1.622 1.622 0 0 0-.424-.224 1.4 1.4 0 0 0-.441-.065c-.375 0-.658.111-.848.332s-.285.549-.285.982c0 .889.391 1.334 1.173 1.334.233 0 .467-.033.701-.098v-.907h-.583a.287.287 0 0 1-.194-.06c-.045-.041-.068-.1-.068-.176s.023-.133.068-.173a.286.286 0 0 1 .194-.063h.913zM10.221 31.54c.04.06.061.12.061.178a.242.242 0 0 1-.096.196.358.358 0 0 1-.381.037.33.33 0 0 1-.126-.116L8.995 30.8a.672.672 0 0 0-.219-.231.595.595 0 0 0-.3-.068h-.505v1.151a.34.34 0 0 1-.088.244c-.059.058-.138.088-.237.088s-.179-.029-.24-.088a.326.326 0 0 1-.091-.244V28.65c0-.099.028-.176.086-.231s.135-.083.235-.083h1.287c.412 0 .725.092.941.276.215.183.323.447.323.791 0 .281-.08.512-.24.691s-.386.295-.679.347a.655.655 0 0 1 .262.128c.076.06.149.146.222.256l.469.713zm-1.39-1.544c.25 0 .434-.047.55-.141s.174-.239.174-.435c0-.197-.058-.342-.174-.432s-.3-.136-.55-.136h-.868v1.143h.868zM12.486 32c-.353 0-.66-.074-.918-.224a1.52 1.52 0 0 1-.6-.646 2.175 2.175 0 0 1-.212-.987c0-.375.069-.701.209-.98.139-.279.339-.495.6-.646s.568-.226.921-.226c.354 0 .662.075.921.226s.457.366.595.646c.139.278.209.605.209.98 0 .377-.071.706-.212.987-.14.28-.339.495-.598.646a1.805 1.805 0 0 1-.916.224zm0-.527c.333 0 .593-.114.779-.344.188-.229.283-.558.283-.985s-.095-.754-.283-.982c-.187-.227-.447-.342-.779-.342-.337 0-.598.114-.785.342s-.28.555-.28.982.093.756.28.985c.187.23.448.344.785.344zM16.354 32c-.498 0-.875-.128-1.133-.384s-.386-.631-.386-1.123v-1.851a.33.33 0 0 1 .086-.239.321.321 0 0 1 .24-.09c.099 0 .177.03.235.09.059.06.088.14.088.239v1.887c0 .312.074.547.222.706s.364.239.648.239c.283 0 .497-.08.643-.241.148-.161.222-.395.222-.703v-1.887c0-.099.029-.178.088-.239s.137-.09.237-.09c.099 0 .178.03.237.09s.088.14.088.239v1.851c0 .489-.13.863-.388 1.12-.257.258-.633.387-1.128.387zM18.934 31.985a.329.329 0 0 1-.24-.088.326.326 0 0 1-.091-.244v-3.002c0-.099.028-.176.086-.231s.135-.083.235-.083h1.266c.389 0 .69.097.906.291.217.193.325.463.325.811 0 .35-.108.622-.325.816-.216.195-.517.291-.906.291h-.921v1.105c0 .102-.03.183-.091.244a.342.342 0 0 1-.245.088zm1.173-1.944c.457 0 .686-.198.686-.595 0-.395-.229-.593-.686-.593h-.838v1.188h.838z" />
    </symbol>
    <symbol id="icon-minus" viewBox="0 0 32 32">
      <path d="M32 16c0 8.837-7.163 16-16 16S0 24.837 0 16 7.163 0 16 0s16 7.163 16 16z" />
      <path fill="#fff" d="M24.049 17.147H7.957v-2.299h16.092v2.299z" />
    </symbol>
    <symbol id="icon-plus" viewBox="0 0 32 32">
      <path d="M32 16c0 8.837-7.163 16-16 16S0 24.837 0 16 7.163 0 16 0s16 7.163 16 16z" />
      <path fill="#fff"
        d="M24.049 17.147h-6.897v6.897h-2.299v-6.897H7.956v-2.299h6.897V7.951h2.299v6.897h6.897v2.299z" />
    </symbol>
    <symbol id="icon-whatsApp" viewBox="0 0 32 32">
      <path
        d="M16.528 24.902h-.004a9.514 9.514 0 0 1-4.547-1.158l-5.044 1.323 1.35-4.93a9.491 9.491 0 0 1-1.27-4.756c.002-5.246 4.27-9.514 9.514-9.514 2.545.001 4.934.992 6.73 2.79s2.785 4.189 2.784 6.731c-.002 5.244-4.268 9.512-9.514 9.514zm-4.317-2.881.289.171a7.895 7.895 0 0 0 4.025 1.102h.003c4.358 0 7.906-3.547 7.908-7.908.001-2.113-.821-4.1-2.314-5.594s-3.478-2.318-5.591-2.319c-4.362 0-7.909 3.547-7.911 7.907a7.89 7.89 0 0 0 1.209 4.208l.188.299-.799 2.918 2.993-.785zm8.784-4.585c.166.08.278.134.326.214.059.099.059.575-.139 1.13s-1.148 1.062-1.605 1.13c-.41.061-.928.087-1.497-.094a13.78 13.78 0 0 1-1.355-.501c-2.229-.962-3.735-3.122-4.019-3.531a1.331 1.331 0 0 0-.042-.059l-.002-.003c-.126-.168-.969-1.293-.969-2.457 0-1.095.538-1.669.785-1.933l.047-.05c.218-.238.475-.298.634-.298a10.908 10.908 0 0 1 .509.009c.139-.001.311-.002.482.407.066.157.162.391.263.637.205.498.431 1.048.47 1.128.059.119.099.258.02.416a2.055 2.055 0 0 0-.033.068c-.06.121-.103.211-.204.329-.04.046-.081.096-.122.146-.082.1-.164.199-.235.27-.119.119-.243.247-.104.485s.616 1.016 1.322 1.647c.76.678 1.42.964 1.755 1.109.065.028.118.051.157.071.238.119.376.099.515-.06s.594-.694.753-.932c.158-.238.317-.198.535-.119s1.387.654 1.624.773l.13.064z" />
    </symbol>
    <symbol id="icon-menu" viewBox="0 0 37 32">
      <path stroke-linejoin="miter" stroke-linecap="round" stroke-miterlimit="4" stroke-width="4.5714"
        d="M2.286 2.286h32M2.286 16h32M2.286 29.714h32"></path>
    </symbol>
    <symbol id="icon-messenger" viewBox="0 0 40 40">
      <path
        d="M12.3811 27.7012V31.9703L16.3728 29.7009C17.4855 30.0216 18.6683 30.1947 19.8938 30.1947C26.463 30.1947 31.7876 25.2258 31.7876 19.0973C31.7876 12.9684 26.463 8 19.8938 8C13.325 8 8 12.9684 8 19.0973C8 22.5678 9.7074 25.6665 12.3811 27.7012Z" />
      <path
        d="M18.6233 16.0576L12.209 22.849L18.0465 19.6461L21.0965 22.849L27.4746 16.0576L21.7018 19.2044L18.6233 16.0576V16.0576Z"
        fill="#EBE7F3" />
    </symbol>
    <symbol id="icon-telegram" viewBox="0 0 48 48">
      <path
        d="M10.7874 23.4709C17.7667 20.3663 22.4206 18.3195 24.7493 17.3305C31.3979 14.507 32.7795 14.0165 33.68 14.0002C33.878 13.9968 34.3208 14.0469 34.6077 14.2845C34.8499 14.4852 34.9165 14.7563 34.9484 14.9465C34.9803 15.1368 35.02 15.5702 34.9884 15.9088C34.6281 19.774 33.0692 29.1539 32.276 33.483C31.9404 35.3148 31.2796 35.929 30.6399 35.9891C29.2496 36.1197 28.1938 35.051 26.8473 34.1497C24.7401 32.7395 23.5498 31.8615 21.5044 30.4854C19.1407 28.895 20.673 28.0209 22.0201 26.5923C22.3726 26.2185 28.4983 20.5295 28.6169 20.0135C28.6317 19.9489 28.6455 19.7083 28.5055 19.5813C28.3655 19.4543 28.1589 19.4977 28.0098 19.5322C27.7985 19.5812 24.4323 21.8529 17.9113 26.3473C16.9558 27.0172 16.0904 27.3435 15.315 27.3264C14.4602 27.3076 12.8159 26.833 11.5935 26.4273C10.0942 25.9296 8.90254 25.6666 9.0063 24.8215C9.06035 24.3813 9.65403 23.9311 10.7874 23.4709Z" />
    </symbol>
    <symbol id="icon-tel" viewBox="0 0 48 48">
      <path
        d="M33.275 34.5C30.7667 34.5 28.3217 33.9408 25.9402 32.8223C23.5578 31.7047 21.4481 30.2269 19.611 28.389C17.7731 26.5519 16.2953 24.4422 15.1777 22.0598C14.0592 19.6783 13.5 17.2333 13.5 14.725C13.5 14.375 13.6167 14.0833 13.85 13.85C14.0833 13.6167 14.375 13.5 14.725 13.5H19.45C19.7222 13.5 19.9653 13.5875 20.1792 13.7625C20.3931 13.9375 20.5194 14.1611 20.5583 14.4333L21.3167 18.5167C21.3556 18.7889 21.3509 19.0366 21.3027 19.2598C21.2537 19.4838 21.1417 19.6833 20.9667 19.8583L18.1667 22.7167C18.9833 24.1167 20.0042 25.4292 21.2292 26.6542C22.4542 27.8792 23.8056 28.9389 25.2833 29.8333L28.025 27.0917C28.2 26.9167 28.4287 26.7852 28.711 26.6973C28.9926 26.6102 29.2694 26.5861 29.5417 26.625L33.5667 27.4417C33.8389 27.5 34.0625 27.6311 34.2375 27.8348C34.4125 28.0394 34.5 28.2778 34.5 28.55V33.275C34.5 33.625 34.3833 33.9167 34.15 34.15C33.9167 34.3833 33.625 34.5 33.275 34.5Z" />
    </symbol>
    <symbol id="icon-close" viewBox="0 0 28 28" fill="none">
      <path d="M2.7998 2.79999L25.1998 25.2M2.7998 25.2L25.1998 2.79999" stroke-width="2" />
    </symbol>
    <symbol id="icon-prev-btn" viewBox="0 0 40 40">
      <path d="M23.7049 15.41L22.2949 14L16.2949 20L22.2949 26L23.7049 24.59L19.1249 20L23.7049 15.41Z" />
    </symbol>
    <symbol id="icon-next-btn" viewBox="0 0 40 40">
      <path d="M17.7049 14L16.2949 15.41L20.8749 20L16.2949 24.59L17.7049 26L23.7049 20L17.7049 14Z" />
    </symbol>
   <symbol id="icon-winter" viewBox="0 0 32 32">
<path d="M14.507 4.066v2.040l-2.614-2.612-1.413 1.413 4.027 4.028-0.028 4.451-1.867-1.075c-1.027-0.591-1.875-1.081-1.886-1.090s-0.35-1.247-0.755-2.752c-0.522-1.941-0.756-2.735-0.807-2.731-0.129 0.010-1.778 0.46-1.818 0.496-0.021 0.019 0.165 0.79 0.414 1.713s0.446 1.708 0.439 1.744c-0.008 0.038-0.744-0.357-1.767-0.95-1.114-0.645-1.772-0.997-1.805-0.965-0.028 0.028-0.37 0.6-0.759 1.27-0.523 0.901-0.692 1.235-0.649 1.281 0.033 0.034 0.821 0.5 1.753 1.035s1.687 0.98 1.68 0.988c-0.008 0.008-0.794 0.223-1.747 0.478s-1.742 0.472-1.754 0.483c-0.017 0.016 0.15 0.68 0.432 1.715 0.027 0.098 0.082 0.173 0.127 0.173 0.044 0 1.282-0.323 2.751-0.718l2.671-0.718 1.9 1.094c1.045 0.602 1.919 1.114 1.943 1.137s-0.83 0.548-1.897 1.165l-1.94 1.123-2.658-0.714c-1.462-0.393-2.698-0.727-2.747-0.743-0.076-0.024-0.129 0.12-0.347 0.933-0.142 0.529-0.248 0.969-0.236 0.979s0.766 0.215 1.675 0.455c0.909 0.241 1.697 0.455 1.751 0.477 0.074 0.029-0.296 0.265-1.52 0.968-0.889 0.511-1.683 0.968-1.763 1.016l-0.145 0.087 0.722 1.249c0.397 0.687 0.74 1.268 0.762 1.29s0.83-0.416 1.796-0.974c0.966-0.558 1.764-0.993 1.772-0.967s-0.189 0.811-0.439 1.743c-0.25 0.933-0.444 1.707-0.431 1.72s0.439 0.137 0.946 0.276c0.811 0.221 0.927 0.241 0.963 0.166 0.022-0.047 0.361-1.279 0.751-2.739s0.721-2.662 0.733-2.673c0.040-0.036 3.739-2.167 3.76-2.167 0.012 0 0.022 0.99 0.022 2.2v2.2l-4.026 4.027 1.413 1.413 2.614-2.612v4.133h2.985l0.028-4.155 2.622 2.547 1.376-1.38-4.026-4.027v-2.2c0-1.21 0.010-2.2 0.023-2.2s0.883 0.496 1.933 1.103l1.922 1.109c0.006 0.004 0.337 1.217 0.734 2.697s0.732 2.717 0.744 2.75c0.014 0.040 0.338-0.026 0.964-0.196 0.518-0.14 0.95-0.263 0.959-0.273s-0.194-0.797-0.451-1.751c-0.258-0.953-0.46-1.742-0.451-1.753s0.779 0.421 1.71 0.96c0.931 0.539 1.72 0.986 1.752 0.994 0.049 0.013 1.397-2.244 1.491-2.495 0.022-0.060-0.417-0.337-1.73-1.093-0.968-0.557-1.76-1.026-1.76-1.043s0.75-0.23 1.667-0.475c0.917-0.244 1.704-0.459 1.75-0.477 0.072-0.028 0.051-0.156-0.161-0.949-0.134-0.504-0.26-0.932-0.278-0.951s-1.25 0.292-2.737 0.69c-1.487 0.398-2.721 0.724-2.743 0.724s-0.842-0.463-1.822-1.030c-0.98-0.567-1.824-1.053-1.875-1.082-0.075-0.042 0.265-0.259 1.772-1.13 1.026-0.593 1.899-1.078 1.94-1.078s1.282 0.324 2.758 0.719 2.693 0.708 2.707 0.694c0.014-0.014 0.137-0.445 0.275-0.958l0.25-0.933-0.271-0.077c-0.149-0.043-0.919-0.25-1.712-0.46s-1.459-0.4-1.482-0.422c-0.023-0.021 0.75-0.493 1.718-1.048s1.761-1.025 1.762-1.044c0.004-0.066-1.451-2.551-1.494-2.551-0.023 0-0.814 0.446-1.757 0.991s-1.723 0.983-1.732 0.973 0.184-0.762 0.429-1.671c0.245-0.909 0.452-1.7 0.46-1.757 0.013-0.091-0.094-0.133-0.918-0.354-0.513-0.138-0.949-0.235-0.968-0.216s-0.352 1.222-0.739 2.674c-0.387 1.452-0.732 2.683-0.765 2.736s-0.913 0.587-1.954 1.187l-1.893 1.091-0.014-2.209-0.014-2.209 4.058-4.031-1.416-1.419-1.281 1.28c-0.704 0.704-1.299 1.28-1.321 1.28s-0.040-0.924-0.040-2.053v-2.053h-2.987v2.040z"></path>
</symbol>
<symbol id="icon-autumn" viewBox="0 0 32 32">
<path d="M15.2 3.448c-1.161 2.213-1.642 3.072-1.798 3.211-0.106 0.094-0.182 0.119-0.309 0.098-0.152-0.025-1.211-0.581-2.185-1.148-0.205-0.119-0.38-0.209-0.389-0.199s0.129 0.662 0.309 1.45c0.819 3.601 1.173 5.339 1.171 5.753-0.002 0.456-0.298 0.675-0.718 0.53-0.247-0.085-0.122 0.045-1.855-1.926l-1.415-1.61-0.445 0.964c-0.245 0.53-0.511 1.035-0.592 1.122-0.174 0.186 0.036 0.211-1.998-0.231-0.857-0.186-1.573-0.324-1.59-0.306-0.030 0.030 0.798 2.883 1.040 3.584 0.152 0.44 0.144 0.698-0.027 0.856-0.075 0.069-0.376 0.228-0.669 0.354-0.42 0.179-0.518 0.241-0.464 0.291 0.038 0.035 1.257 1.102 2.709 2.371 2.986 2.61 3.283 2.887 3.364 3.132 0.068 0.206 0.047 0.324-0.193 1.108-0.099 0.323-0.239 0.809-0.311 1.080l-0.131 0.493 0.116-0.027c1.341-0.313 5.673-1.2 5.862-1.2 0.353 0 0.601 0.114 0.712 0.328 0.108 0.209 0.091 0.926-0.102 4.409-0.064 1.154-0.106 2.108-0.094 2.12s0.375 0.023 0.805 0.023c0.43 0 0.792-0.010 0.805-0.023s-0.030-0.966-0.094-2.12c-0.064-1.154-0.134-2.591-0.155-3.194-0.035-1.004-0.030-1.109 0.057-1.243 0.135-0.206 0.349-0.301 0.681-0.301 0.164 0 1.508 0.261 3.135 0.61 1.567 0.335 2.854 0.604 2.861 0.597 0.018-0.018-0.281-1.088-0.467-1.674-0.095-0.298-0.157-0.61-0.157-0.787 0-0.263 0.020-0.315 0.2-0.514 0.11-0.122 1.46-1.326 3-2.675s2.83-2.48 2.866-2.513c0.050-0.045-0.066-0.116-0.48-0.296-0.699-0.303-0.804-0.403-0.772-0.738 0.013-0.138 0.281-1.099 0.595-2.136s0.558-1.899 0.541-1.915c-0.017-0.017-0.732 0.122-1.59 0.307s-1.621 0.347-1.694 0.359c-0.25 0.041-0.387-0.148-0.877-1.206l-0.468-1.011-0.433 0.49c0.898-1.043 0.402-0.482-0.095 0.080l-1.427 1.646c-0.598 0.679-1.15 1.26-1.227 1.289-0.299 0.117-0.492 0.091-0.671-0.088-0.142-0.142-0.146-0.162-0.119-0.573 0.031-0.473 0.287-1.723 1.003-4.9 0.264-1.17 0.472-2.135 0.463-2.144s-0.184 0.081-0.389 0.2c-0.974 0.566-2.034 1.123-2.185 1.148-0.127 0.021-0.203-0.004-0.308-0.098-0.174-0.157-0.626-0.958-1.719-3.049-0.469-0.898-0.865-1.633-0.88-1.634s-0.375 0.662-0.8 1.472z"></path>
</symbol>
<symbol id="icon-spring" viewBox="0 0 32 32">
<path d="M15.387 3.047c-2.223 0.278-4.012 2.215-4.045 4.379-0.004 0.286-0.016 0.52-0.026 0.52s-0.166-0.081-0.347-0.181c-0.776-0.428-1.539-0.594-2.555-0.554-0.57 0.022-0.724 0.050-1.201 0.214-1.862 0.639-3.083 2.215-3.195 4.122-0.101 1.722 0.77 3.352 2.261 4.231 0.183 0.108 0.333 0.21 0.333 0.227s-0.118 0.096-0.264 0.176c-1.041 0.567-1.845 1.607-2.2 2.844-0.171 0.597-0.171 1.727 0 2.324 0.649 2.265 2.71 3.677 5.025 3.443 0.582-0.059 1.31-0.284 1.795-0.555 0.181-0.101 0.337-0.183 0.347-0.184s0.010 0.141 0 0.314c-0.040 0.716 0.275 1.771 0.747 2.498 0.648 0.998 1.689 1.724 2.905 2.025 0.496 0.123 1.568 0.123 2.064 0 1.216-0.301 2.257-1.027 2.905-2.025 0.472-0.727 0.788-1.782 0.747-2.498-0.010-0.173-0.014-0.314-0.009-0.314s0.185 0.094 0.4 0.209c1.101 0.588 2.449 0.717 3.623 0.347 0.811-0.256 1.402-0.619 1.994-1.226 1.711-1.753 1.731-4.6 0.046-6.345-0.332-0.344-0.751-0.674-1.088-0.858-0.283-0.154-0.317-0.203-0.176-0.256 0.224-0.086 0.857-0.556 1.168-0.867 0.594-0.594 0.965-1.233 1.208-2.082 0.171-0.597 0.171-1.727 0-2.324-0.501-1.748-1.844-3.006-3.611-3.382-0.271-0.058-0.572-0.072-1.094-0.053-0.848 0.031-1.287 0.14-1.99 0.494-0.259 0.13-0.475 0.236-0.48 0.236s-0.013-0.234-0.018-0.52c-0.034-2.202-1.826-4.108-4.124-4.385-0.507-0.061-0.618-0.061-1.148 0.006zM17.197 11.517c2.224 0.581 3.725 2.758 3.449 5.003-0.232 1.884-1.498 3.374-3.351 3.943-0.424 0.13-0.549 0.144-1.296 0.144s-0.872-0.014-1.296-0.144c-0.892-0.274-1.549-0.682-2.158-1.344-2.228-2.418-1.283-6.298 1.818-7.465 0.83-0.312 1.954-0.367 2.833-0.138z"></path>
</symbol>

<symbol id="icon-summer" viewBox="0 0 32 32">
<path d="M15.547 2.102c-0.206 0.092-0.374 0.275-0.478 0.524-0.068 0.164-0.082 0.477-0.082 1.839 0 0.965 0.023 1.723 0.055 1.84 0.12 0.431 0.472 0.682 0.958 0.682s0.838-0.251 0.958-0.682c0.032-0.117 0.054-0.875 0.054-1.852-0.001-1.493-0.011-1.674-0.099-1.866-0.114-0.247-0.29-0.423-0.503-0.503-0.206-0.078-0.669-0.068-0.863 0.018zM6.356 5.928c-0.285 0.15-0.486 0.427-0.528 0.753l-0.001 0.005c-0.051 0.455 0.024 0.562 1.234 1.785 1.084 1.096 1.381 1.343 1.701 1.418 0.548 0.127 1.254-0.579 1.127-1.127-0.042-0.138-0.096-0.258-0.162-0.37l0.004 0.008c-0.182-0.316-2.302-2.403-2.543-2.504-0.113-0.049-0.244-0.078-0.382-0.078-0.164 0-0.319 0.041-0.455 0.113l0.005-0.003zM24.8 5.898c-0.231 0.1-2.359 2.204-2.531 2.502-0.168 0.292-0.202 0.473-0.135 0.723 0.144 0.535 0.719 0.88 1.235 0.742 0.198-0.054 0.399-0.23 1.419-1.242 1.307-1.298 1.429-1.466 1.386-1.905-0.047-0.507-0.469-0.9-0.984-0.9-0.141 0-0.275 0.029-0.396 0.083l0.006-0.002zM15.042 8.064c-1.777 0.198-3.503 1.070-4.809 2.431-1.036 1.079-1.701 2.318-2.052 3.825-0.137 0.587-0.149 0.726-0.148 1.68 0.001 0.864 0.021 1.128 0.117 1.561 0.36 1.631 1.054 2.904 2.22 4.069 1.15 1.15 2.353 1.817 3.95 2.189 0.585 0.136 0.729 0.149 1.68 0.149s1.095-0.013 1.68-0.149c1.597-0.372 2.8-1.039 3.95-2.189 1.177-1.176 1.862-2.438 2.217-4.083 0.175-0.809 0.175-2.285 0-3.094-0.335-1.551-1.018-2.852-2.078-3.957-1.777-1.851-4.169-2.716-6.727-2.432zM2.727 15.040c-0.53 0.125-0.824 0.664-0.675 1.238 0.065 0.291 0.265 0.524 0.529 0.633l0.006 0.002c0.192 0.088 0.373 0.098 1.866 0.099 0.993 0 1.734-0.022 1.855-0.055 0.266-0.074 0.55-0.33 0.628-0.565 0.089-0.271 0.041-0.788-0.089-0.963-0.144-0.202-0.359-0.345-0.609-0.392l-0.006-0.001c-0.293-0.056-3.263-0.053-3.505 0.004zM25.743 15.037c-0.245 0.055-0.451 0.196-0.588 0.389l-0.002 0.003c-0.13 0.175-0.178 0.692-0.089 0.963 0.078 0.235 0.362 0.491 0.628 0.565 0.121 0.033 0.862 0.055 1.855 0.055 1.493-0.001 1.674-0.011 1.866-0.099 0.273-0.113 0.474-0.35 0.537-0.638l0.001-0.006c0.124-0.477-0.068-0.938-0.484-1.167-0.139-0.077-0.388-0.090-1.84-0.098-0.924-0.004-1.772 0.010-1.884 0.033zM8.37 22.287c-0.361 0.234-2.376 2.29-2.474 2.525-0.048 0.112-0.076 0.243-0.076 0.381 0 0.503 0.375 0.918 0.861 0.98l0.005 0c0.455 0.051 0.562-0.024 1.785-1.234 1.368-1.353 1.524-1.584 1.395-2.062-0.065-0.24-0.316-0.552-0.538-0.666-0.259-0.134-0.686-0.1-0.958 0.076zM22.638 22.233c-0.362 0.22-0.602 0.679-0.527 1.005 0.075 0.32 0.322 0.617 1.418 1.701 1.223 1.21 1.33 1.285 1.785 1.234 0.491-0.063 0.866-0.478 0.866-0.98 0-0.137-0.028-0.268-0.079-0.387l0.002 0.006c-0.098-0.235-2.113-2.291-2.474-2.525-0.292-0.189-0.732-0.213-0.992-0.054zM15.547 25.114c-0.12 0.055-0.223 0.124-0.313 0.209l0.001-0.001c-0.222 0.25-0.244 0.441-0.245 2.198-0.001 1.522 0.008 1.7 0.097 1.893 0.211 0.457 0.677 0.669 1.182 0.538 0.294-0.064 0.531-0.265 0.642-0.532l0.002-0.006c0.089-0.193 0.098-0.371 0.097-1.893-0.001-1.757-0.023-1.948-0.245-2.198-0.149-0.167-0.496-0.306-0.765-0.306-0.165 0.006-0.32 0.041-0.461 0.101l0.008-0.003z"></path>
</symbol>
<symbol id="icon-copy" viewBox="0 0 512 512" ><path d="M308.51,450H80.59a15,15,0,0,1-15-15V143.93a15,15,0,0,1,15-15H308.51a15,15,0,0,1,15,15V435A15,15,0,0,1,308.51,450ZM95.59,420H293.51V158.93H95.59Z"/><path d="M389.44,369.07H308.51a15,15,0,0,1,0-30h65.93V78H176.52v65.92a15,15,0,0,1-30,0V63a15,15,0,0,1,15-15H389.44a15,15,0,0,1,15,15V354.07A15,15,0,0,1,389.44,369.07Z"/></symbol>
</defs>
</svg>